<?xml version="1.0" encoding="UTF-8"?>
<svg version="1.1" xmlns="http://www.w3.org/2000/svg" width="500" height="500">
<path d="M0 0 C3.93985672 1.50131104 5.39864828 3.67744335 7.625 7.1875 C8.32496094 8.27417969 9.02492187 9.36085938 9.74609375 10.48046875 C10.11460449 11.05845215 10.48311523 11.63643555 10.86279297 12.23193359 C12.36861186 14.57309727 13.9198004 16.88225434 15.47265625 19.19238281 C22.09862289 29.05143768 28.54383058 39.02934667 35 49 C34.67 47.35 34.34 45.7 34 44 C37.85114088 45.46582504 38.99916152 47.25480296 40.8125 50.890625 C41.58049927 52.40342041 41.58049927 52.40342041 42.36401367 53.94677734 C42.90388916 55.03684082 43.44376465 56.1269043 44 57.25 C45.16080859 59.54005291 46.32360831 61.8290975 47.48828125 64.1171875 C48.07432129 65.2731543 48.66036133 66.42912109 49.26416016 67.62011719 C51.81568643 72.5882367 54.49109124 77.48440291 57.1875 82.375 C60.14426108 87.74370163 63.07853738 93.11848727 65.90234375 98.55859375 C66.36165283 99.44305176 66.82096191 100.32750977 67.29418945 101.23876953 C68.16116944 102.91547161 69.02324124 104.5947236 69.87963867 106.27685547 C71.70439521 110.31154425 71.70439521 110.31154425 75 113 C74.67 113.66 74.34 114.32 74 115 C74.66 115 75.32 115 76 115 C75.505 116.98 75.505 116.98 75 119 C75.66 119 76.32 119 77 119 C77 118.34 77 117.68 77 117 C78.98 117.495 78.98 117.495 81 118 C81.33 119.32 81.66 120.64 82 122 C84.47627099 121.36078035 84.47627099 121.36078035 87 120 C88.36078035 117.47627099 88.36078035 117.47627099 89 115 C89.99 115 90.98 115 92 115 C93.125 122.75 93.125 122.75 92 125 C91.34 125 90.68 125 90 125 C92.54604597 128.52381687 92.54604597 128.52381687 96 131 C96 131.66 96 132.32 96 133 C96.78375 133.0825 97.5675 133.165 98.375 133.25 C101 134 101 134 102.125 135.9375 C102.41375 136.618125 102.7025 137.29875 103 138 C105.91765 139.9451 107.62537285 140.45276317 111 141 C110.67 140.01 110.34 139.02 110 138 C110.99 137.67 111.98 137.34 113 137 C113 136.34 113 135.68 113 135 C114.60463449 135.31008884 116.20869231 135.62316287 117.8125 135.9375 C118.70582031 136.11152344 119.59914063 136.28554687 120.51953125 136.46484375 C123 137 123 137 126 138 C126.66 137.01 127.32 136.02 128 135 C128.99 135 129.98 135 131 135 C132.8361363 139.39076072 134.12536537 143.05244688 134.4375 147.8125 C134.74230362 151.16393395 134.74230362 151.16393395 136.5 154 C141.13907901 155.85563161 146.04504154 156 151 156 C153.0625 156.1875 153.0625 156.1875 155 157 C155.70211894 158.65204456 156.36971413 160.31923769 157 162 C157.99 162.33 158.98 162.66 160 163 C159.42655063 165.86724686 159.1385485 166.8614515 157 169 C152.67375914 169.671557 147.91258482 170.13225021 144.046875 167.84375 C142.67025032 166.59227302 141.33208553 165.29878339 140 164 C139.01 164.33 138.02 164.66 137 165 C137.71563266 167.0162233 137.71563266 167.0162233 139 169 C139.99 169.185625 139.99 169.185625 141 169.375 C141.66 169.58125 142.32 169.7875 143 170 C145.15082563 174.30165126 145.15896202 178.25917345 144.97265625 182.94921875 C144.89893139 185.20271363 144.89893139 185.20271363 146 188 C145.0625 190.6875 145.0625 190.6875 144 193 C142.02 192.67 140.04 192.34 138 192 C138 192.66 138 193.32 138 194 C136.68 194.33 135.36 194.66 134 195 C133.83312552 197.41645782 133.83312552 197.41645782 134 200 C136.72106694 202.72106694 138.84776311 202.60655572 142.625 203.125 C144.40777344 203.37636719 144.40777344 203.37636719 146.2265625 203.6328125 C147.14179688 203.75398437 148.05703125 203.87515625 149 204 C149.33 204.99 149.66 205.98 150 207 C149.236875 207.433125 148.47375 207.86625 147.6875 208.3125 C145.0620892 209.82185621 145.0620892 209.82185621 143.4375 211.5625 C141.78271758 213.21728242 140.12324258 214.0482016 138 215 C138.33 215.66 138.66 216.32 139 217 C138.5625 219.125 138.5625 219.125 138 221 C137.16855469 220.98839844 136.33710938 220.97679687 135.48046875 220.96484375 C134.39378906 220.95582031 133.30710937 220.94679688 132.1875 220.9375 C130.56908203 220.92009766 130.56908203 220.92009766 128.91796875 220.90234375 C125.93487831 220.86375234 125.93487831 220.86375234 123 222 C122.175 221.855625 121.35 221.71125 120.5 221.5625 C115.65976199 220.78460461 110.8915094 220.92166622 106 221 C105.67 221.66 105.34 222.32 105 223 C103.68 223 102.36 223 101 223 C100.7525 223.61875 100.505 224.2375 100.25 224.875 C99 227 99 227 97 227.8125 C94.57686044 228.95978833 94.57686044 228.95978833 93.75 232.625 C93.5025 233.73875 93.255 234.8525 93 236 C89.45595664 236 88.89732095 235.39010515 86.3125 233.125 C85.68988281 232.59132813 85.06726563 232.05765625 84.42578125 231.5078125 C83 230 83 230 83 228 C81.08302063 228.14166357 79.16642277 228.28849584 77.25 228.4375 C75.64898437 228.55931641 75.64898437 228.55931641 74.015625 228.68359375 C71.56320038 228.94090773 69.36078709 229.31812218 67 230 C66.67 229.34 66.34 228.68 66 228 C64.02324185 227.12493844 64.02324185 227.12493844 61.6875 226.4375 C60.90761719 226.18871094 60.12773437 225.93992187 59.32421875 225.68359375 C58.55722656 225.45800781 57.79023438 225.23242188 57 225 C55.98873047 224.67708984 55.98873047 224.67708984 54.95703125 224.34765625 C52.99125012 223.84360308 52.99125012 223.84360308 51.109375 224.58984375 C47.95440369 225.20331039 46.09176143 223.94955022 43.25 222.5625 C41.77273437 221.85287109 41.77273437 221.85287109 40.265625 221.12890625 C39.51796875 220.75636719 38.7703125 220.38382813 38 220 C37.34 220.66 36.68 221.32 36 222 C33.875 221.625 33.875 221.625 32 221 C32.875 216.125 32.875 216.125 34 215 C31.03 214.01 31.03 214.01 28 213 C28 212.34 28 211.68 28 211 C26.35 210.34 24.7 209.68 23 209 C23 206 23 206 24 205 C23.4740625 204.071875 23.4740625 204.071875 22.9375 203.125 C22.628125 202.42375 22.31875 201.7225 22 201 C22.33 200.34 22.66 199.68 23 199 C22.236875 199.0825 21.47375 199.165 20.6875 199.25 C18 199 18 199 16.125 197.375 C14.6124047 194.18174327 15.15454525 192.38181899 16 189 C16.185625 188.21625 16.37125 187.4325 16.5625 186.625 C16.7790625 185.820625 16.7790625 185.820625 17 185 C16.34 185 15.68 185 15 185 C15.66666667 183 16.33333333 181 17 179 C15.68 179 14.36 179 13 179 C13 177.68 13 176.36 13 175 C13.99 175 14.98 175 16 175 C15.34 173.68 14.68 172.36 14 171 C12.02 171.99 12.02 171.99 10 173 C10.020625 172.278125 10.04125 171.55625 10.0625 170.8125 C10.00179441 168.08074862 9.60741465 165.65743909 9 163 C8.34 163 7.68 163 7 163 C4 156.375 4 156.375 4 153 C5.65 153 7.3 153 9 153 C8.67 151.02 8.34 149.04 8 147 C9.65 147.66 11.3 148.32 13 149 C14.20738768 145.99177758 14.20738768 145.99177758 13.8125 142.625 C14.0327608 138.36662462 14.98255634 136.92869532 18 134 C18.66 134 19.32 134 20 134 C20 133.34 20 132.68 20 132 C21.32 131.67 22.64 131.34 24 131 C23.67 128.36 23.34 125.72 23 123 C26.87132028 123.57352893 29.08172796 125.48704352 32 128 C32 125.69 32 123.38 32 121 C32.99 120.67 33.98 120.34 35 120 C35 119.34 35 118.68 35 118 C35.66 118 36.32 118 37 118 C37 118.66 37 119.32 37 120 C38.65 120.33 40.3 120.66 42 121 C42 120.01 42 119.02 42 118 C42.99 117.67 43.98 117.34 45 117 C45 116.34 45 115.68 45 115 C43.2072358 113.48800372 43.2072358 113.48800372 41 112 C38.75 110.4375 38.75 110.4375 37 109 C37 108.34 37 107.68 37 107 C39.68849519 107.46088489 41.95077903 107.97728263 44.4375 109.125 C47.65669951 110.22423886 49.71369147 109.7144149 53 109 C53.99 109 54.98 109 56 109 C55.505 110.98 55.505 110.98 55 113 C58.67986596 113.204437 60.78360346 112.74565111 64 111 C57.22332486 95.08543264 50.1720753 79.70767347 41 65 C40.54189941 64.25975586 40.08379883 63.51951172 39.61181641 62.75683594 C36.68101524 58.0321033 33.70167539 53.33989171 30.70117188 48.65917969 C28.83956951 45.74922376 26.98975254 42.8319602 25.140625 39.9140625 C18.22347517 29.02378046 11.23650515 18.2113683 3.80883789 7.66015625 C3.30473389 6.93828125 2.80062988 6.21640625 2.28125 5.47265625 C1.83845703 4.84625244 1.39566406 4.21984863 0.93945312 3.57446289 C0 2 0 2 0 0 Z M37 52 C38 54 38 54 38 54 Z M39 55 C40 57 40 57 40 57 Z M40 57 C41 59 41 59 41 59 Z M62 98 C63 100 63 100 63 100 Z M63 100 C64 102 64 102 64 102 Z M64 102 C64.55728913 105.34373475 65.35173889 108.03312999 67 111 C67.66 110.67 68.32 110.34 69 110 C67.68 107.36 66.36 104.72 65 102 C64.67 102 64.34 102 64 102 Z " fill="#DBB443" transform="translate(175,89)"/>
<path d="M0 0 C3.93985672 1.50131104 5.39864828 3.67744335 7.625 7.1875 C8.32496094 8.27417969 9.02492187 9.36085938 9.74609375 10.48046875 C10.11460449 11.05845215 10.48311523 11.63643555 10.86279297 12.23193359 C12.36861186 14.57309727 13.9198004 16.88225434 15.47265625 19.19238281 C22.09862289 29.05143768 28.54383058 39.02934667 35 49 C34.67 47.35 34.34 45.7 34 44 C37.85114088 45.46582504 38.99916152 47.25480296 40.8125 50.890625 C41.58049927 52.40342041 41.58049927 52.40342041 42.36401367 53.94677734 C42.90388916 55.03684082 43.44376465 56.1269043 44 57.25 C45.16080859 59.54005291 46.32360831 61.8290975 47.48828125 64.1171875 C48.07432129 65.2731543 48.66036133 66.42912109 49.26416016 67.62011719 C51.81568643 72.5882367 54.49109124 77.48440291 57.1875 82.375 C60.14426108 87.74370163 63.07853738 93.11848727 65.90234375 98.55859375 C66.36165283 99.44305176 66.82096191 100.32750977 67.29418945 101.23876953 C68.16116944 102.91547161 69.02324124 104.5947236 69.87963867 106.27685547 C71.70439521 110.31154425 71.70439521 110.31154425 75 113 C74.67 113.66 74.34 114.32 74 115 C74.66 115 75.32 115 76 115 C76.061875 115.928125 76.12375 116.85625 76.1875 117.8125 C76.81926975 122.48376721 78.89551321 126.44262627 80.94140625 130.64453125 C82 133 82 133 82 135 C83.32 135.33 84.64 135.66 86 136 C85.34 136.33 84.68 136.66 84 137 C84.99 139.31 85.98 141.62 87 144 C88.89600369 143.68853528 90.79179587 143.37578283 92.6875 143.0625 C93.74324219 142.88847656 94.79898438 142.71445313 95.88671875 142.53515625 C98.60249604 142.06832879 101.30124235 141.55577384 104 141 C103.67 141.99 103.34 142.98 103 144 C102.34 144 101.68 144 101 144 C101 144.99 101 145.98 101 147 C99.35 147.66 97.7 148.32 96 149 C97.98 151.97 97.98 151.97 100 155 C100.99 154.67 101.98 154.34 103 154 C102.9175 154.70253906 102.835 155.40507812 102.75 156.12890625 C103.08815879 160.01244858 104.67774254 161.82677336 107 164.9375 C122.26584552 185.95432386 122.26584552 185.95432386 122.3125 196.125 C122.32925781 196.97320312 122.34601563 197.82140625 122.36328125 198.6953125 C121.92114824 201.50024236 121.25707688 202.32272268 119 204 C109.38222522 207.03719204 99.41226791 207.15698156 89.40234375 207.16796875 C87.79088219 207.17296135 87.79088219 207.17296135 86.14686584 207.17805481 C83.89047673 207.18308643 81.63408027 207.18546431 79.37768555 207.18530273 C75.9437228 207.18749603 72.51007826 207.20571074 69.07617188 207.22460938 C66.87239692 207.22754282 64.66862046 207.22952794 62.46484375 207.23046875 C61.4489769 207.23765427 60.43311005 207.24483978 59.38645935 207.25224304 C52.45307999 207.23020827 45.80097765 206.76142867 39.4375 203.8125 C37.69002046 201.60915623 37.37517227 199.97286254 37.56640625 197.1796875 C40.0193303 184.84877199 48.19738169 171.93263582 55.24609375 161.66796875 C57.16299999 159.02754356 57.16299999 159.02754356 58 155.6875 C58.33 154.800625 58.66 153.91375 59 153 C61.125 152.125 61.125 152.125 63 152 C61.87548273 154.9719385 60.77706209 157.33440687 59 160 C59.66 160 60.32 160 61 160 C62.07525194 157.34771188 63.09456151 154.71631546 64 152 C64.66 151.67 65.32 151.34 66 151 C66.33 150.01 66.66 149.02 67 148 C64.69 148.33 62.38 148.66 60 149 C60 148.34 60 147.68 60 147 C59.01 146.67 58.02 146.34 57 146 C55.3125 144.6875 55.3125 144.6875 54 143 C54 141.68 54 140.36 54 139 C58.96993194 136.56574762 62.34605369 135.65384002 68 136 C64.49461443 137.96301592 60.86648272 138.95902388 57 140 C57 140.66 57 141.32 57 142 C63.64248536 143.91610155 70.11059329 144.56367091 77 145 C76.01 140.545 76.01 140.545 75 136 C73.02 136 71.04 136 69 136 C70.32 135.34 71.64 134.68 73 134 C64.34899868 110.08560058 54.51143445 86.60286451 41 65 C40.54334961 64.26265625 40.08669922 63.5253125 39.61621094 62.765625 C36.68385869 58.03799663 33.70344539 53.34265287 30.70117188 48.65917969 C28.83956951 45.74922376 26.98975254 42.8319602 25.140625 39.9140625 C18.22347517 29.02378046 11.23650515 18.2113683 3.80883789 7.66015625 C3.30473389 6.93828125 2.80062988 6.21640625 2.28125 5.47265625 C1.83845703 4.84625244 1.39566406 4.21984863 0.93945312 3.57446289 C0 2 0 2 0 0 Z M37 52 C38 54 38 54 38 54 Z M39 55 C40 57 40 57 40 57 Z M40 57 C41 59 41 59 41 59 Z M62 98 C63 100 63 100 63 100 Z M63 100 C64 102 64 102 64 102 Z M64 102 C64.55728913 105.34373475 65.35173889 108.03312999 67 111 C67.66 110.67 68.32 110.34 69 110 C67.68 107.36 66.36 104.72 65 102 C64.67 102 64.34 102 64 102 Z " fill="#D8B142" transform="translate(175,89)"/>
<path d="M0 0 C2.68849519 0.46088489 4.95077903 0.97728263 7.4375 2.125 C10.65669951 3.22423886 12.71369147 2.7144149 16 2 C16.99 2 17.98 2 19 2 C18.67 3.32 18.34 4.64 18 6 C20.41645782 6.16687448 20.41645782 6.16687448 23 6 C23.66 5.34 24.32 4.68 25 4 C25.99 4 26.98 4 28 4 C40 33.71615721 40 33.71615721 40 38 C32.37048445 38.34855655 26.07555499 38.0017506 19 35 C19.33 34.01 19.66 33.02 20 32 C23.5625 30.8125 23.5625 30.8125 27 30 C23.62294375 30.53725895 20.303314 31.11064623 17 32 C17 33.32 17 34.64 17 36 C17.99 36.33 18.98 36.66 20 37 C20.598125 37.680625 21.19625 38.36125 21.8125 39.0625 C23.9210898 41.32285175 23.9210898 41.32285175 27.25 41.25 C28.1575 41.1675 29.065 41.085 30 41 C29.67 42.32 29.34 43.64 29 45 C28.34 45 27.68 45 27 45 C26.814375 45.86625 26.814375 45.86625 26.625 46.75 C25.99351176 49.02335767 25.11141809 50.9253529 24 53 C23.34 53 22.68 53 22 53 C23.875 48.25 23.875 48.25 25 46 C24.01 46 23.02 46 22 46 C21.76667969 47.16402344 21.53335938 48.32804687 21.29296875 49.52734375 C20.12703983 54.17777542 17.98184965 57.62958525 15.3125 61.5625 C10.40512922 69.08114046 6.53807034 76.74785299 3 85 C2.61070312 85.90234375 2.22140625 86.8046875 1.8203125 87.734375 C0.7844062 90.59544955 0.87128834 92.97527593 1 96 C1 97.32 1 98.64 1 100 C0.278125 99.95875 -0.44375 99.9175 -1.1875 99.875 C-4.20729369 100.00921305 -6.26935729 100.75170619 -9 102 C-8.6875 99.625 -8.6875 99.625 -8 97 C-6.515 96.01 -6.515 96.01 -5 95 C-6.1446875 94.814375 -6.1446875 94.814375 -7.3125 94.625 C-10 94 -10 94 -13 92 C-14.175625 91.855625 -15.35125 91.71125 -16.5625 91.5625 C-18.2640625 91.2840625 -18.2640625 91.2840625 -20 91 C-22 88 -22 88 -21.6875 85.0625 C-20.61403509 80.28070175 -20.61403509 80.28070175 -20 78 C-20.66 78 -21.32 78 -22 78 C-21.33333333 76 -20.66666667 74 -20 72 C-21.32 72 -22.64 72 -24 72 C-24 70.68 -24 69.36 -24 68 C-23.01 68 -22.02 68 -21 68 C-21.66 66.68 -22.32 65.36 -23 64 C-24.98 64.99 -24.98 64.99 -27 66 C-26.979375 65.278125 -26.95875 64.55625 -26.9375 63.8125 C-26.99820559 61.08074862 -27.39258535 58.65743909 -28 56 C-28.66 56 -29.32 56 -30 56 C-33 49.375 -33 49.375 -33 46 C-31.35 46 -29.7 46 -28 46 C-28.33 44.02 -28.66 42.04 -29 40 C-27.35 40.66 -25.7 41.32 -24 42 C-22.79261232 38.99177758 -22.79261232 38.99177758 -23.1875 35.625 C-22.9672392 31.36662462 -22.01744366 29.92869532 -19 27 C-18.34 27 -17.68 27 -17 27 C-17 26.34 -17 25.68 -17 25 C-15.68 24.67 -14.36 24.34 -13 24 C-13.33 21.36 -13.66 18.72 -14 16 C-10.12867972 16.57352893 -7.91827204 18.48704352 -5 21 C-5 18.69 -5 16.38 -5 14 C-4.01 13.67 -3.02 13.34 -2 13 C-2 12.34 -2 11.68 -2 11 C-1.34 11 -0.68 11 0 11 C0 11.66 0 12.32 0 13 C2.475 13.495 2.475 13.495 5 14 C5 13.01 5 12.02 5 11 C5.99 10.67 6.98 10.34 8 10 C8 9.34 8 8.68 8 8 C6.2072358 6.48800372 6.2072358 6.48800372 4 5 C1.75 3.4375 1.75 3.4375 0 2 C0 1.34 0 0.68 0 0 Z " fill="#DDB542" transform="translate(212,196)"/>
<path d="M0 0 C3.93985672 1.50131104 5.39864828 3.67744335 7.625 7.1875 C8.32496094 8.27417969 9.02492187 9.36085938 9.74609375 10.48046875 C10.11460449 11.05845215 10.48311523 11.63643555 10.86279297 12.23193359 C12.36861186 14.57309727 13.9198004 16.88225434 15.47265625 19.19238281 C22.09862289 29.05143768 28.54383058 39.02934667 35 49 C34.67 47.35 34.34 45.7 34 44 C37.85114088 45.46582504 38.99916152 47.25480296 40.8125 50.890625 C41.58049927 52.40342041 41.58049927 52.40342041 42.36401367 53.94677734 C42.90388916 55.03684082 43.44376465 56.1269043 44 57.25 C45.16080859 59.54005291 46.32360831 61.8290975 47.48828125 64.1171875 C48.07432129 65.2731543 48.66036133 66.42912109 49.26416016 67.62011719 C51.81568643 72.5882367 54.49109124 77.48440291 57.1875 82.375 C60.14426108 87.74370163 63.07853738 93.11848727 65.90234375 98.55859375 C66.36165283 99.44305176 66.82096191 100.32750977 67.29418945 101.23876953 C68.16116944 102.91547161 69.02324124 104.5947236 69.87963867 106.27685547 C71.70439521 110.31154425 71.70439521 110.31154425 75 113 C74.67 113.66 74.34 114.32 74 115 C74.66 115 75.32 115 76 115 C76.061875 115.928125 76.12375 116.85625 76.1875 117.8125 C76.81926975 122.48376721 78.89551321 126.44262627 80.94140625 130.64453125 C82 133 82 133 82 135 C83.32 135.33 84.64 135.66 86 136 C85.34 136.33 84.68 136.66 84 137 C84.99 139.31 85.98 141.62 87 144 C88.89600369 143.68853528 90.79179587 143.37578283 92.6875 143.0625 C93.74324219 142.88847656 94.79898438 142.71445313 95.88671875 142.53515625 C98.60249604 142.06832879 101.30124235 141.55577384 104 141 C103.67 141.99 103.34 142.98 103 144 C100.890625 144.94921875 100.890625 144.94921875 98.25 145.6875 C96.95835937 146.06455078 96.95835937 146.06455078 95.640625 146.44921875 C93.01182147 146.99753428 90.67647662 147.10108994 88 147 C88.495 147.99 88.99 148.98 89.5 150 C91.30103581 154.13477234 91.23515871 157.53198453 91 162 C89.68 162.33 88.36 162.66 87 163 C83.27992944 158.88135045 79 152.79263039 79 147 C78.154375 147.02320313 77.30875 147.04640625 76.4375 147.0703125 C68.40743134 147.19806359 61.13434317 147.16170018 54 143 C54 141.68 54 140.36 54 139 C58.96993194 136.56574762 62.34605369 135.65384002 68 136 C64.49461443 137.96301592 60.86648272 138.95902388 57 140 C57 140.66 57 141.32 57 142 C63.64248536 143.91610155 70.11059329 144.56367091 77 145 C76.01 140.545 76.01 140.545 75 136 C73.02 136 71.04 136 69 136 C70.32 135.34 71.64 134.68 73 134 C64.34899868 110.08560058 54.51143445 86.60286451 41 65 C40.54334961 64.26265625 40.08669922 63.5253125 39.61621094 62.765625 C36.68385869 58.03799663 33.70344539 53.34265287 30.70117188 48.65917969 C28.83956951 45.74922376 26.98975254 42.8319602 25.140625 39.9140625 C18.22347517 29.02378046 11.23650515 18.2113683 3.80883789 7.66015625 C3.30473389 6.93828125 2.80062988 6.21640625 2.28125 5.47265625 C1.83845703 4.84625244 1.39566406 4.21984863 0.93945312 3.57446289 C0 2 0 2 0 0 Z M37 52 C38 54 38 54 38 54 Z M39 55 C40 57 40 57 40 57 Z M40 57 C41 59 41 59 41 59 Z M62 98 C63 100 63 100 63 100 Z M63 100 C64 102 64 102 64 102 Z M64 102 C64.55728913 105.34373475 65.35173889 108.03312999 67 111 C67.66 110.67 68.32 110.34 69 110 C67.68 107.36 66.36 104.72 65 102 C64.67 102 64.34 102 64 102 Z " fill="#352205" transform="translate(175,89)"/>
<path d="M0 0 C1.85431641 -0.01740234 1.85431641 -0.01740234 3.74609375 -0.03515625 C10.19973597 -0.01436041 15.19762187 0.19095114 20.875 3.375 C20.95576963 5.83398655 21.01537143 8.29033742 21.0625 10.75 C21.08763672 11.44867188 21.11277344 12.14734375 21.13867188 12.8671875 C21.16796875 14.8984375 21.16796875 14.8984375 20.875 18.375 C17.02765102 20.93989932 13.83676675 20.68082459 9.375 20.67578125 C8.12686523 20.68220894 8.12686523 20.68220894 6.85351562 20.68876648 C5.09506134 20.69450693 3.33658331 20.69501213 1.578125 20.69067383 C-1.11499399 20.68751175 -3.80701668 20.71098298 -6.5 20.73632812 C-8.20833195 20.73860091 -9.91666685 20.73930471 -11.625 20.73828125 C-12.43130859 20.747491 -13.23761719 20.75670074 -14.06835938 20.76618958 C-19.67417757 20.71968745 -19.67417757 20.71968745 -21.84301758 19.06144714 C-23.94243595 16.29966347 -23.4055382 13.56788798 -23.3125 10.1875 C-23.28542969 8.91519531 -23.25835937 7.64289063 -23.23046875 6.33203125 C-23.19566406 5.35621094 -23.16085938 4.38039063 -23.125 3.375 C-15.32505048 0.19100333 -8.36892298 -0.07903495 0 0 Z " fill="#090602" transform="translate(254.125,263.625)"/>
<path d="M0 0 C3.28915958 3.8058196 5.61716141 7.78593913 7.75 12.3125 C8.06582031 12.93833984 8.38164062 13.56417969 8.70703125 14.20898438 C10.98249958 19.01110911 11.30592278 22.69929952 11 28 C6.13799129 30.29280772 1.74770726 31.65373442 -3.625 32.1875 C-4.7862439 32.30593262 -4.7862439 32.30593262 -5.97094727 32.42675781 C-15.27350328 33.22330695 -24.60753607 33.21840299 -33.9375 33.25 C-35.13853363 33.25790054 -35.13853363 33.25790054 -36.36383057 33.26596069 C-45.77735148 33.3137469 -54.74867995 32.99304601 -64 31 C-64 30.67 -64 30.34 -64 30 C-61.36 30 -58.72 30 -56 30 C-56 27.69 -56 25.38 -56 23 C-55.01 22.67 -54.02 22.34 -53 22 C-52.67 22.33 -52.34 22.66 -52 23 C-50.61839885 23.0927833 -49.23211962 23.11747043 -47.84741211 23.11352539 C-46.96657455 23.11344986 -46.085737 23.11337433 -45.1782074 23.11329651 C-43.74227989 23.10555458 -43.74227989 23.10555458 -42.27734375 23.09765625 C-41.30213272 23.0962413 -40.32692169 23.09482635 -39.32215881 23.09336853 C-36.19390857 23.08775133 -33.06572877 23.07519593 -29.9375 23.0625 C-27.82226666 23.05748722 -25.70703219 23.05292393 -23.59179688 23.04882812 C-18.39450704 23.03777631 -13.19725855 23.02102146 -8 23 C-7.95101562 22.08476562 -7.90203125 21.16953125 -7.8515625 20.2265625 C-7.77679688 19.03804688 -7.70203125 17.84953125 -7.625 16.625 C-7.55539062 15.44164062 -7.48578125 14.25828125 -7.4140625 13.0390625 C-7 10 -7 10 -5 8 C-5 8.66 -5 9.32 -5 10 C-4.34 10 -3.68 10 -3 10 C-3.495 7.525 -3.495 7.525 -4 5 C-1 4 -1 4 0 4 C0 2.68 0 1.36 0 0 Z " fill="#D9B244" transform="translate(284,261)"/>
<path d="M0 0 C3.44130336 1.26158601 6.23911756 2.69956583 9.1875 4.87109375 C9.96206543 5.43965088 10.73663086 6.00820801 11.53466797 6.59399414 C12.34822754 7.20235107 13.16178711 7.81070801 14 8.4375 C15.2686792 9.3819397 15.2686792 9.3819397 16.56298828 10.34545898 C31.13035065 21.27444061 46.03332088 32.95134819 55.76953125 48.5625 C59.15267784 53.92361094 63.08128003 58.92231441 66.90209961 63.97509766 C76.80784575 77.21909003 82.96730709 90.43506975 85 107 C89.51329217 98.75695033 89.51329217 98.75695033 92.1875 89.8125 C92.455625 88.554375 92.72375 87.29625 93 86 C93.99 85.67 94.98 85.34 96 85 C97.22399452 91.64041122 97.11227753 98.20221697 97.0625 104.9375 C97.05798828 106.09830078 97.05347656 107.25910156 97.04882812 108.45507812 C97.03710647 111.30343934 97.0206976 114.15169222 97 117 C97.66 113.7 98.32 110.4 99 107 C99.99 106.67 100.98 106.34 102 106 C104.23904715 110.47809429 103.18502098 116.64661051 103.1875 121.5625 C103.19974609 122.81353516 103.21199219 124.06457031 103.22460938 125.35351562 C103.23542165 132.20489378 103.00085254 138.42175848 101 145 C100.34 145.33 99.68 145.66 99 146 C99 138.08 99 130.16 99 122 C97.081875 124.6915625 97.081875 124.6915625 95.125 127.4375 C91.25 132.875 91.25 132.875 89 134 C89.28875 133.34 89.5775 132.68 89.875 132 C92.69135453 124.48972124 93.26765463 117.95573918 93.125 110 C93.11597656 109.03449219 93.10695313 108.06898438 93.09765625 107.07421875 C93.07430635 104.71587901 93.04156047 102.35807714 93 100 C92.29423828 101.15628906 92.29423828 101.15628906 91.57421875 102.3359375 C90.95160156 103.33882813 90.32898438 104.34171875 89.6875 105.375 C89.07261719 106.37273437 88.45773438 107.37046875 87.82421875 108.3984375 C86 111 86 111 83 113 C82.91363281 112.29617187 82.82726562 111.59234375 82.73828125 110.8671875 C80.2226489 93.18852345 72.59804381 79.23686399 62.15332031 65.10864258 C59.33627731 61.28839378 56.60849478 57.45972191 54.0859375 53.4375 C43.96698199 37.3093235 30.98549456 24.6607492 15.76318359 13.32226562 C12.51460784 10.88605872 9.32236319 8.37777901 6.125 5.875 C5.51116455 5.40078613 4.8973291 4.92657227 4.26489258 4.43798828 C2.82467286 3.31544273 1.40943475 2.16096297 0 1 C0 0.67 0 0.34 0 0 Z M95 119 C96 122 96 122 96 122 Z " fill="#040404" transform="translate(151,48)"/>
<path d="M0 0 C2.68849519 0.46088489 4.95077903 0.97728263 7.4375 2.125 C10.65669951 3.22423886 12.71369147 2.7144149 16 2 C16.99 2 17.98 2 19 2 C18.67 3.32 18.34 4.64 18 6 C20.41645782 6.16687448 20.41645782 6.16687448 23 6 C23.66 5.34 24.32 4.68 25 4 C25.99 4 26.98 4 28 4 C40 33.71615721 40 33.71615721 40 38 C32.37048445 38.34855655 26.07555499 38.0017506 19 35 C20 32 20 32 21.84765625 31.05078125 C22.57855469 30.80714844 23.30945313 30.56351563 24.0625 30.3125 C24.79597656 30.06113281 25.52945313 29.80976563 26.28515625 29.55078125 C26.85105469 29.36902344 27.41695312 29.18726563 28 29 C28 28.34 28 27.68 28 27 C27.31164062 26.7628125 26.62328125 26.525625 25.9140625 26.28125 C22.42944828 24.7491408 19.45643421 22.70202947 16.375 20.5 C15.23705926 19.69780304 14.09904104 18.89571598 12.9609375 18.09375 C11.98382813 17.4028125 11.00671875 16.711875 10 16 C9.01 15.34 8.02 14.68 7 14 C7 13.34 7 12.68 7 12 C8.32 11.34 9.64 10.68 11 10 C10.28972656 9.52949219 9.57945312 9.05898437 8.84765625 8.57421875 C7.92855469 7.95160156 7.00945312 7.32898438 6.0625 6.6875 C5.14597656 6.07261719 4.22945312 5.45773438 3.28515625 4.82421875 C1 3 1 3 0 0 Z " fill="#D5B048" transform="translate(212,196)"/>
<path d="M0 0 C3.93985672 1.50131104 5.39864828 3.67744335 7.625 7.1875 C8.32496094 8.27417969 9.02492187 9.36085938 9.74609375 10.48046875 C10.11460449 11.05845215 10.48311523 11.63643555 10.86279297 12.23193359 C12.36861186 14.57309727 13.9198004 16.88225434 15.47265625 19.19238281 C22.09862289 29.05143768 28.54383058 39.02934667 35 49 C34.67 47.35 34.34 45.7 34 44 C37.85114088 45.46582504 38.99916152 47.25480296 40.8125 50.890625 C41.32458008 51.89931641 41.83666016 52.90800781 42.36425781 53.94726562 C42.90405273 55.03716797 43.44384766 56.12707031 44 57.25 C45.15950846 59.53744777 46.32100664 61.82388791 47.484375 64.109375 C48.07025391 65.26501953 48.65613281 66.42066406 49.25976562 67.61132812 C51.83391371 72.62383871 54.53277853 77.56400053 57.25 82.5 C58.22799647 84.28899041 59.20586364 86.07805151 60.18359375 87.8671875 C61.58548332 90.42757968 62.99173026 92.98513222 64.41064453 95.53613281 C65.72161834 97.89355712 67.01817322 100.25840727 68.3125 102.625 C68.8998291 103.66430664 68.8998291 103.66430664 69.49902344 104.72460938 C71.58356973 108.56853597 72.10578209 109.57687164 71 114 C69.02 111.03 67.04 108.06 65 105 C65.33 106.65 65.66 108.3 66 110 C65.01 110.495 65.01 110.495 64 111 C63.69408936 110.28158936 63.38817871 109.56317871 63.07299805 108.82299805 C56.57445893 93.65167391 49.75123834 79.03284991 41 65 C40.54189941 64.25975586 40.08379883 63.51951172 39.61181641 62.75683594 C36.68101524 58.0321033 33.70167539 53.33989171 30.70117188 48.65917969 C28.83956951 45.74922376 26.98975254 42.8319602 25.140625 39.9140625 C18.22347517 29.02378046 11.23650515 18.2113683 3.80883789 7.66015625 C3.30473389 6.93828125 2.80062988 6.21640625 2.28125 5.47265625 C1.83845703 4.84625244 1.39566406 4.21984863 0.93945312 3.57446289 C0 2 0 2 0 0 Z M37 52 C38 54 38 54 38 54 Z M39 55 C40 57 40 57 40 57 Z M40 57 C41 59 41 59 41 59 Z M62 98 C63 100 63 100 63 100 Z M63 100 C64 102 64 102 64 102 Z " fill="#080807" transform="translate(175,89)"/>
<path d="M0 0 C1.45131422 0.5186593 2.89654492 1.05458814 4.3359375 1.60546875 C5.12210449 1.90026123 5.90827148 2.19505371 6.71826172 2.4987793 C13.944235 5.309346 20.89628755 8.65633136 27.8359375 12.10546875 C28.8976416 12.63309814 29.9593457 13.16072754 31.05322266 13.7043457 C38.58054566 17.53218507 38.58054566 17.53218507 39.7109375 19.79296875 C33.70169837 17.9510958 27.99015276 15.42972959 22.2109375 12.98046875 C13.46275376 9.29918428 4.71299503 5.80422039 -4.2890625 2.79296875 C-4.6190625 3.12296875 -4.9490625 3.45296875 -5.2890625 3.79296875 C-4.83015625 4.13328125 -4.37125 4.47359375 -3.8984375 4.82421875 C-3.28484375 5.30890625 -2.67125 5.79359375 -2.0390625 6.29296875 C-1.43578125 6.75703125 -0.8325 7.22109375 -0.2109375 7.69921875 C5.15376421 13.54369054 6.87797458 21.29034622 8.7265625 28.78515625 C8.98725525 29.81230743 9.247948 30.83945862 9.51654053 31.8977356 C10.06187573 34.05313638 10.60284684 36.20964559 11.13964844 38.3671875 C11.96412187 41.68076682 12.80117255 44.99096815 13.640625 48.30078125 C14.1699951 50.39955704 14.69866605 52.49850932 15.2265625 54.59765625 C15.47649963 55.59030487 15.72643677 56.58295349 15.98394775 57.60568237 C16.21128601 58.52068512 16.43862427 59.43568787 16.67285156 60.37841797 C16.87396545 61.18479706 17.07507935 61.99117615 17.2822876 62.82199097 C17.7109375 64.79296875 17.7109375 64.79296875 17.7109375 66.79296875 C18.8865625 66.83421875 20.0621875 66.87546875 21.2734375 66.91796875 C26.01569387 67.43146148 30.12852717 68.9074423 34.5234375 70.66796875 C35.16933838 70.92465332 35.81523926 71.18133789 36.48071289 71.44580078 C43.12248723 74.19799846 43.12248723 74.19799846 45.7109375 76.79296875 C45.7109375 78.11296875 45.7109375 79.43296875 45.7109375 80.79296875 C38.27470608 83.27171256 29.1659376 81.75353696 21.7109375 79.79296875 C21.3809375 79.13296875 21.0509375 78.47296875 20.7109375 77.79296875 C27.3109375 77.79296875 33.9109375 77.79296875 40.7109375 77.79296875 C38.4215625 76.69984375 36.1321875 75.60671875 33.7734375 74.48046875 C33.07226807 74.14233154 32.37109863 73.80419434 31.64868164 73.45581055 C31.06207764 73.17906494 30.47547363 72.90231934 29.87109375 72.6171875 C29.20142578 72.29709717 28.53175781 71.97700684 27.84179688 71.6472168 C25.71641228 70.7171244 25.71641228 70.7171244 23.36132812 70.33911133 C20.74548177 69.80422367 18.94987696 69.26411646 16.7109375 67.79296875 C14.37932624 63.79721781 13.2806653 59.55313325 12.0859375 55.10546875 C11.71678223 53.85991211 11.34762695 52.61435547 10.96728516 51.33105469 C9.15376768 45.21025042 7.50671943 39.04382086 5.8359375 32.8828125 C5.53896973 31.81184326 5.24200195 30.74087402 4.93603516 29.63745117 C4.38590013 27.6348775 3.8579772 25.62601257 3.35693359 23.6105957 C1.23141606 15.73257528 -2.42285516 10.47038308 -9.16015625 5.8046875 C-10.00707031 5.36769531 -10.85398437 4.93070313 -11.7265625 4.48046875 C-14.34765625 3.1171875 -14.34765625 3.1171875 -16.2890625 1.79296875 C-16.2890625 0.80296875 -16.2890625 -0.18703125 -16.2890625 -1.20703125 C-11.61448528 -3.54431986 -4.79675001 -1.51885808 0 0 Z " fill="#060606" transform="translate(126.2890625,31.20703125)"/>
<path d="M0 0 C2.97589077 1.48794538 3.18009696 3.57088638 4.34765625 6.64453125 C4.78787109 7.79630859 5.22808594 8.94808594 5.68164062 10.13476562 C6.13732422 11.34841797 6.59300781 12.56207031 7.0625 13.8125 C7.52205078 15.01455078 7.98160156 16.21660156 8.45507812 17.45507812 C12.14850027 27.1794627 12.14850027 27.1794627 13 31 C14.11375 31.0825 15.2275 31.165 16.375 31.25 C22.11852969 31.96666146 28.23629182 33.77217424 32.79296875 37.4453125 C34 39 34 39 34 42 C31.23547967 43.38226016 28.9538637 43.09525387 25.875 43.0625 C24.77929688 43.05347656 23.68359375 43.04445312 22.5546875 43.03515625 C21.71164063 43.02355469 20.86859375 43.01195312 20 43 C26.79437762 50.69625314 26.79437762 50.69625314 34 58 C34.57363281 58.59167969 35.14726562 59.18335938 35.73828125 59.79296875 C47.04298451 70.79961957 62.37208652 75.52386366 77.07739258 80.25732422 C79 81 79 81 82 83 C63.62965165 82.5142456 43.99698533 73.99397334 30.90234375 61.22265625 C25.07863474 54.96993735 18.83786005 47.6757201 15 40 C21.435 39.505 21.435 39.505 28 39 C27.10796875 38.59007812 26.2159375 38.18015625 25.296875 37.7578125 C24.12640625 37.21898437 22.9559375 36.68015625 21.75 36.125 C20.58984375 35.59132812 19.4296875 35.05765625 18.234375 34.5078125 C17.16703125 34.01023438 16.0996875 33.51265625 15 33 C14.26265625 32.69578125 13.5253125 32.3915625 12.765625 32.078125 C5.81973412 27.8368288 2.89159332 16.39801156 1 9 C0.49095466 5.97567182 0.20435769 3.06536529 0 0 Z " fill="#070606" transform="translate(149,112)"/>
<path d="M0 0 C0.33 0.66 0.66 1.32 1 2 C-0.2865935 4.48236864 -1.62907719 6.85426375 -3.0625 9.25 C-11.57112663 23.76424197 -11.57112663 23.76424197 -15 40 C-13.845 40.309375 -12.69 40.61875 -11.5 40.9375 C-10.8503125 41.11152344 -10.200625 41.28554688 -9.53125 41.46484375 C-3.29771579 42.78273601 2.85937343 43.15717633 9.20703125 43.16796875 C9.96641998 43.17211288 10.72580872 43.17625702 11.50820923 43.18052673 C13.94302322 43.190118 16.37767021 43.19019894 18.8125 43.1875 C19.63992706 43.18756042 20.46735413 43.18762085 21.31985474 43.18768311 C42.4987095 43.50647982 42.4987095 43.50647982 63 39 C63.41303974 32.54353664 62.33477464 28.42068591 59.4375 22.6875 C59.08051025 21.95200928 58.72352051 21.21651855 58.35571289 20.45874023 C55.66535099 15.02752389 52.62224671 9.97718073 49.15234375 5.00390625 C48.77207031 4.34261719 48.39179688 3.68132812 48 3 C48.33 2.34 48.66 1.68 49 1 C53.11513077 6.58114611 56.87013472 12.2979052 60.3125 18.3125 C60.64958984 18.89854004 60.98667969 19.48458008 61.33398438 20.08837891 C64.17808805 25.12588981 66.28568108 29.27847499 66.3125 35.125 C66.32925781 35.97320312 66.34601563 36.82140625 66.36328125 37.6953125 C65.92114824 40.50024236 65.25707688 41.32272268 63 43 C53.38222522 46.03719204 43.41226791 46.15698156 33.40234375 46.16796875 C31.79088219 46.17296135 31.79088219 46.17296135 30.14686584 46.17805481 C27.89047673 46.18308643 25.63408027 46.18546431 23.37768555 46.18530273 C19.9437228 46.18749603 16.51007826 46.20571074 13.07617188 46.22460938 C10.87239692 46.22754282 8.66862046 46.22952794 6.46484375 46.23046875 C5.4489769 46.23765427 4.43311005 46.24483978 3.38645935 46.25224304 C-3.54692001 46.23020827 -10.19902235 45.76142867 -16.5625 42.8125 C-18.30997954 40.60915623 -18.62482773 38.97286254 -18.43359375 36.1796875 C-16.01269324 24.00975521 -7.79110109 9.57337912 0 0 Z " fill="#120701" transform="translate(231,250)"/>
<path d="M0 0 C1.80004883 0.11987305 1.80004883 0.11987305 4 1 C5.6315918 3.62036133 5.6315918 3.62036133 7.19921875 7.08203125 C7.47973587 7.69261887 7.76025299 8.30320648 8.04927063 8.93229675 C8.94244614 10.88643667 9.81463593 12.84921693 10.6875 14.8125 C11.28584856 16.123623 11.88544419 17.43417764 12.48632812 18.74414062 C17.21319124 29.1380754 17.21319124 29.1380754 18 33 C16.02 33 14.04 33 12 33 C10.28893169 28.46180086 8.5799899 23.92280903 6.87304688 19.38305664 C6.29160564 17.83758714 5.7095755 16.29233907 5.12695312 14.74731445 C4.2914321 12.53133648 3.45800609 10.31458063 2.625 8.09765625 C2.23127197 7.05545677 2.23127197 7.05545677 1.82958984 5.99220276 C0 1.11387171 0 1.11387171 0 0 Z " fill="#CFAE50" transform="translate(242,201)"/>
<path d="M0 0 C-0.66 0 -1.32 0 -2 0 C-2 0.66 -2 1.32 -2 2 C-1.04287109 2.39832031 -1.04287109 2.39832031 -0.06640625 2.8046875 C0.75988281 3.15789062 1.58617187 3.51109375 2.4375 3.875 C3.26121094 4.22304687 4.08492188 4.57109375 4.93359375 4.9296875 C7 6 7 6 8 8 C2.54873741 10.23891142 -2.13190493 11.47606294 -8 12 C-9.32 9.03 -10.64 6.06 -12 3 C-10.02 2.67 -8.04 2.34 -6 2 C-6 1.34 -6 0.68 -6 0 C-3.50907189 -1.24546405 -2.58919267 -0.7767578 0 0 Z " fill="#DAB441" transform="translate(270,222)"/>
<path d="M0 0 C0.33 0.99 0.66 1.98 1 3 C1.66 3.66 2.32 4.32 3 5 C3 5.99 3 6.98 3 8 C-4.62951555 8.34855655 -10.92444501 8.0017506 -18 5 C-17.67 4.01 -17.34 3.02 -17 2 C-11.35948428 -0.28020848 -6.01998014 -0.21802745 0 0 Z " fill="#DBB443" transform="translate(249,226)"/>
<path d="M0 0 C0.33 0.66 0.66 1.32 1 2 C-0.2865935 4.48236864 -1.62907719 6.85426375 -3.0625 9.25 C-11.57112663 23.76424197 -11.57112663 23.76424197 -15 40 C-9.64878069 41.43336231 -4.50808397 42.40984815 1 43 C1 43.99 1 44.98 1 46 C-13.6893039 45.3106961 -13.6893039 45.3106961 -18 41 C-19.71896694 28.10774794 -8.42042095 11.60266835 -1.1953125 1.46875 C-0.80085938 0.9840625 -0.40640625 0.499375 0 0 Z " fill="#3C2303" transform="translate(231,250)"/>
<path d="M0 0 C3.44130336 1.26158601 6.23911756 2.69956583 9.1875 4.87109375 C9.96262939 5.44013428 10.73775879 6.0091748 11.53637695 6.59545898 C12.34937256 7.20333252 13.16236816 7.81120605 14 8.4375 C14.84071045 9.06277588 15.6814209 9.68805176 16.54760742 10.33227539 C35.84414243 24.7996117 35.84414243 24.7996117 43 34 C38.39985972 33.53109291 36.63253255 31.99831133 33.5625 28.625 C28.09970985 22.93560523 22.13511184 18.21424267 15.87597656 13.43505859 C12.6092066 10.93609011 9.36648025 8.40662764 6.125 5.875 C5.51172852 5.4013501 4.89845703 4.9277002 4.26660156 4.43969727 C2.82590531 3.31646013 1.41005303 2.16147225 0 1 C0 0.67 0 0.34 0 0 Z " fill="#0C0B0A" transform="translate(151,48)"/>
<path d="M0 0 C0.66 0 1.32 0 2 0 C1.95875 0.78375 1.9175 1.5675 1.875 2.375 C1.71271266 5.16116119 1.71271266 5.16116119 4 7 C6.19291082 7.45662153 8.40585889 7.820412 10.625 8.125 C12.40777344 8.37636719 12.40777344 8.37636719 14.2265625 8.6328125 C15.14179688 8.75398438 16.05703125 8.87515625 17 9 C17.33 9.99 17.66 10.98 18 12 C17.236875 12.433125 16.47375 12.86625 15.6875 13.3125 C13.04420153 14.79614341 13.04420153 14.79614341 11.5625 16.625 C9.27207428 18.64057463 6.96425214 18.67063865 4 19 C4.99 17.02 5.98 15.04 7 13 C5.68 13.33 4.36 13.66 3 14 C3.33 12.68 3.66 11.36 4 10 C1.525 9.01 1.525 9.01 -1 8 C-0.67 5.36 -0.34 2.72 0 0 Z " fill="#DAB54D" transform="translate(307,284)"/>
<path d="M0 0 C2.68849519 0.46088489 4.95077903 0.97728263 7.4375 2.125 C10.65669951 3.22423886 12.71369147 2.7144149 16 2 C16.99 2 17.98 2 19 2 C18.67 3.32 18.34 4.64 18 6 C20.97 6.99 23.94 7.98 27 9 C23.28233332 10.23922223 21.56110463 9.57018942 17.8125 8.5625 C16.72582031 8.27503906 15.63914063 7.98757812 14.51953125 7.69140625 C13.27236328 7.34916016 13.27236328 7.34916016 12 7 C12 7.66 12 8.32 12 9 C13.32 9.66 14.64 10.32 16 11 C12.19734463 11 10.63100351 9.77411141 7.4375 7.75 C6.46683594 7.14671875 5.49617187 6.5434375 4.49609375 5.921875 C2.04362465 4.03358894 1.06739496 2.85480782 0 0 Z " fill="#4E3810" transform="translate(212,196)"/>
<path d="M0 0 C2.87418785 0.66327412 3.85635935 1.06596213 5.4375 3.5625 C5.75 6.625 5.75 6.625 5.4375 9.5625 C3.4375 11.5625 3.4375 11.5625 -0.1875 11.6875 C-1.30125 11.64625 -2.415 11.605 -3.5625 11.5625 C-3.5625 10.9025 -3.5625 10.2425 -3.5625 9.5625 C-4.2225 9.5625 -4.8825 9.5625 -5.5625 9.5625 C-5.8925 8.5725 -6.2225 7.5825 -6.5625 6.5625 C-3.62227383 0.79513328 -3.62227383 0.79513328 0 0 Z " fill="#DAB751" transform="translate(270.5625,325.4375)"/>
<path d="M0 0 C0.99 0.33 1.98 0.66 3 1 C2.74224951 3.98080857 2.46916651 6.95893211 2.1875 9.9375 C2.11724609 10.76830078 2.04699219 11.59910156 1.97460938 12.45507812 C1.40497038 18.31096701 0.09150949 23.50324384 -2 29 C-3.09506492 25.71480525 -3.09960608 23.26336585 -3.0625 19.8125 C-3.05347656 18.72582031 -3.04445313 17.63914063 -3.03515625 16.51953125 C-3.02355469 15.68808594 -3.01195312 14.85664063 -3 14 C-4.98 14.99 -4.98 14.99 -7 16 C-6.66226563 15.43152344 -6.32453125 14.86304688 -5.9765625 14.27734375 C-3.25311261 9.56246952 -1.24133018 5.30386531 0 0 Z " fill="#0D0D0A" transform="translate(260,179)"/>
<path d="M0 0 C0 0.66 0 1.32 0 2 C-1.65 2.66 -3.3 3.32 -5 4 C-3.02 6.97 -3.02 6.97 -1 10 C-0.01 9.67 0.98 9.34 2 9 C2 11.66666667 2 14.33333333 2 17 C1.4225 16.175 0.845 15.35 0.25 14.5 C-0.4925 13.675 -1.235 12.85 -2 12 C-3.32 12 -4.64 12 -6 12 C-6 10.68 -6 9.36 -6 8 C-6.99 8 -7.98 8 -9 8 C-9 9.65 -9 11.3 -9 13 C-10.96301592 9.49461443 -11.95902388 5.86648272 -13 2 C-11.39658445 1.66307215 -9.79223445 1.33058907 -8.1875 1 C-7.29417969 0.814375 -6.40085937 0.62875 -5.48046875 0.4375 C-3 0 -3 0 0 0 Z " fill="#C1A03E" transform="translate(276,234)"/>
<path d="M0 0 C1.58409994 0.11487748 3.16728963 0.24234508 4.75 0.375 C6.07257813 0.47941406 6.07257813 0.47941406 7.421875 0.5859375 C10.02386288 1.00383252 11.77433233 1.60645133 14 3 C14.33 3.66 14.66 4.32 15 5 C14.360625 5.598125 13.72125 6.19625 13.0625 6.8125 C10.79689611 8.90810337 10.79689611 8.90810337 10 12 C10.66 12 11.32 12 12 12 C12 11.34 12 10.68 12 10 C12.66 10.33 13.32 10.66 14 11 C14 12.65 14 14.3 14 16 C12.68 15.67 11.36 15.34 10 15 C10 14.34 10 13.68 10 13 C7.525 12.01 7.525 12.01 5 11 C5 8 5 8 6 7 C5.649375 6.38125 5.29875 5.7625 4.9375 5.125 C4.628125 4.42375 4.31875 3.7225 4 3 C4.33 2.34 4.66 1.68 5 1 C3.35 1 1.7 1 0 1 C0 0.67 0 0.34 0 0 Z " fill="#DCB754" transform="translate(193,287)"/>
<path d="M0 0 C0.33 0 0.66 0 1 0 C1.02684679 2.64590014 1.04676357 5.29153096 1.0625 7.9375 C1.07087891 8.69224609 1.07925781 9.44699219 1.08789062 10.22460938 C1.09652441 12.14994313 1.05224333 14.07535581 1 16 C-0.54156555 17.54156555 -1.97445764 17.13468494 -4.12084961 17.14526367 C-4.99523178 17.15164352 -5.86961395 17.15802338 -6.77049255 17.16459656 C-8.1970089 17.16626579 -8.1970089 17.16626579 -9.65234375 17.16796875 C-11.10804527 17.17296135 -11.10804527 17.17296135 -12.59315491 17.17805481 C-14.6502332 17.1831283 -16.70731975 17.18546301 -18.7644043 17.18530273 C-21.92054744 17.18748826 -25.07634071 17.20563691 -28.23242188 17.22460938 C-30.2265613 17.22754333 -32.22070239 17.22952811 -34.21484375 17.23046875 C-35.16383041 17.23765427 -36.11281708 17.24483978 -37.09056091 17.25224304 C-37.96809525 17.24916641 -38.84562958 17.24608978 -39.74975586 17.24291992 C-40.5239537 17.24434494 -41.29815155 17.24576996 -42.09580994 17.24723816 C-44 17 -44 17 -46 15 C-46.1953125 11.7421875 -46.1953125 11.7421875 -46.125 7.875 C-46.10695312 6.59367187 -46.08890625 5.31234375 -46.0703125 3.9921875 C-46.04710937 3.00476563 -46.02390625 2.01734375 -46 1 C-45.67 1 -45.34 1 -45 1 C-44.95101562 1.84304688 -44.90203125 2.68609375 -44.8515625 3.5546875 C-44.77679688 4.65039062 -44.70203125 5.74609375 -44.625 6.875 C-44.55539063 7.96554687 -44.48578125 9.05609375 -44.4140625 10.1796875 C-44.26746509 13.13046474 -44.26746509 13.13046474 -42 15 C-39.16634392 15.21219883 -36.43291979 15.30396569 -33.59765625 15.30078125 C-32.76415146 15.30506638 -31.93064667 15.3093515 -31.07188416 15.31376648 C-29.3074535 15.31951435 -27.54299915 15.32000668 -25.77856445 15.31567383 C-23.07657467 15.31251645 -20.37568222 15.33595745 -17.67382812 15.36132812 C-15.96093888 15.36360131 -14.24804669 15.36430453 -12.53515625 15.36328125 C-11.7257106 15.372491 -10.91626495 15.38170074 -10.08229065 15.39118958 C-5.90332882 15.47117377 -5.90332882 15.47117377 -2.29466248 13.65910339 C-0.3533037 11.17126197 -0.47952059 8.91908292 -0.3125 5.8125 C-0.24675781 4.72582031 -0.18101562 3.63914062 -0.11328125 2.51953125 C-0.07589844 1.68808594 -0.03851563 0.85664063 0 0 Z " fill="#D2B355" transform="translate(276,268)"/>
<path d="M0 0 C2.88857676 1.44428838 3.04521175 3.24760192 4.1640625 6.2421875 C4.76347656 7.84126953 4.76347656 7.84126953 5.375 9.47265625 C5.7875 10.59542969 6.2 11.71820313 6.625 12.875 C7.04523438 13.99003906 7.46546875 15.10507813 7.8984375 16.25390625 C11 24.60194298 11 24.60194298 11 28 C8 27 8 27 6.46484375 24.15625 C0 8.68030691 0 8.68030691 0 0 Z " fill="#050505" transform="translate(149,112)"/>
<path d="M0 0 C2.475 0.495 2.475 0.495 5 1 C4.34 1.66 3.68 2.32 3 3 C3.33845947 3.85754883 3.67691895 4.71509766 4.02563477 5.59863281 C5.27752527 8.78589121 6.51937487 11.97669036 7.75463867 15.17041016 C8.29103263 16.55119098 8.83136937 17.93044694 9.37573242 19.30810547 C10.15808005 21.29005279 10.92602705 23.27707351 11.69140625 25.265625 C12.15748291 26.45961914 12.62355957 27.65361328 13.10375977 28.88378906 C13.96883655 31.89164525 14.16002498 33.15686184 13 36 C10.36 36 7.72 36 5 36 C5 35.67 5 35.34 5 35 C7.31 35 9.62 35 12 35 C11.34 32.03 10.68 29.06 10 26 C8.02 26 6.04 26 4 26 C5.32 25.34 6.64 24.68 8 24 C7.63648438 23.06933716 7.63648438 23.06933716 7.265625 22.11987305 C6.17187037 19.31107961 5.08585681 16.49935556 4 13.6875 C3.6184375 12.71103516 3.236875 11.73457031 2.84375 10.72851562 C2.4828125 9.79072266 2.121875 8.85292969 1.75 7.88671875 C1.41484375 7.02264404 1.0796875 6.15856934 0.734375 5.26831055 C0 3 0 3 0 0 Z " fill="#3E2A09" transform="translate(240,199)"/>
<path d="M0 0 C-0.66 0.66 -1.32 1.32 -2 2 C-2.99 2 -3.98 2 -5 2 C-5 2.66 -5 3.32 -5 4 C-3.68 4.66 -2.36 5.32 -1 6 C-4.01031744 6.93423645 -4.86650268 7.04449911 -8 6 C-8.33 6.99 -8.66 7.98 -9 9 C-10.98 9 -12.96 9 -15 9 C-15 8.01 -15 7.02 -15 6 C-15.66 6 -16.32 6 -17 6 C-16.67 5.01 -16.34 4.02 -16 3 C-15.34 3 -14.68 3 -14 3 C-14 2.34 -14 1.68 -14 1 C-13.34 1 -12.68 1 -12 1 C-12 1.66 -12 2.32 -12 3 C-10.35 3.33 -8.7 3.66 -7 4 C-7 3.01 -7 2.02 -7 1 C-3.375 -1.125 -3.375 -1.125 0 0 Z " fill="#D7B74D" transform="translate(224,206)"/>
<path d="M0 0 C8.41217604 2.43458271 16.70386716 5.20143786 25 8 C20.08517006 9.6421044 15.94466568 8.10604364 11 7 C14.3 9.31 17.6 11.62 21 14 C20.01 14.495 20.01 14.495 19 15 C14.99079287 12.34694503 10.99168321 9.67934901 7 7 C6.22269531 6.48050781 5.44539062 5.96101562 4.64453125 5.42578125 C3.05860539 4.33688782 1.52224186 3.1762778 0 2 C0 1.34 0 0.68 0 0 Z " fill="#463108" transform="translate(219,208)"/>
<path d="M0 0 C1.9375 0.75 1.9375 0.75 4 2 C4.75 4.125 4.75 4.125 5 6 C4.34 6 3.68 6 3 6 C2.67 6.66 2.34 7.32 2 8 C1.34 7.67 0.68 7.34 0 7 C-0.33 7.99 -0.66 8.98 -1 10 C-5.10839064 8.54997977 -8.50344613 6.6020866 -12 4 C-12 3.34 -12 2.68 -12 2 C-7.71 2.66 -3.42 3.32 1 4 C0.01 3.34 -0.98 2.68 -2 2 C-1.34 1.34 -0.68 0.68 0 0 Z " fill="#DBB744" transform="translate(236,201)"/>
<path d="M0 0 C0.66 0.33 1.32 0.66 2 1 C1.67 1.66 1.34 2.32 1 3 C1.66 3 2.32 3 3 3 C3.061875 3.928125 3.12375 4.85625 3.1875 5.8125 C3.81926975 10.48376721 5.89551321 14.44262627 7.94140625 18.64453125 C9 21 9 21 9 23 C10.32 23.33 11.64 23.66 13 24 C12.34 24.33 11.68 24.66 11 25 C11.99 27.64 12.98 30.28 14 33 C11 32 11 32 9.89672852 30.17749023 C9.56084717 29.39575439 9.22496582 28.61401855 8.87890625 27.80859375 C8.31139648 26.51405273 8.31139648 26.51405273 7.73242188 25.19335938 C7.34634766 24.28392578 6.96027344 23.37449219 6.5625 22.4375 C5.79457495 20.66466797 5.02506077 18.8925234 4.25390625 17.12109375 C3.88410645 16.25726074 3.51430664 15.39342773 3.13330078 14.50341797 C2.05753964 12.12710286 0.8505967 9.8794974 -0.41015625 7.59765625 C-0.93480469 6.41042969 -1.45945313 5.22320312 -2 4 C-1.09936523 1.77514648 -1.09936523 1.77514648 0 0 Z " fill="#3C2606" transform="translate(248,201)"/>
<path d="M0 0 C0.66 0 1.32 0 2 0 C2.66 0.99 3.32 1.98 4 3 C5.32 2.01 6.64 1.02 8 0 C9.20767624 2.41535248 8.97793036 3.47846408 8.66015625 6.1328125 C8.56669922 6.93847656 8.47324219 7.74414062 8.37695312 8.57421875 C8.22129883 9.83685547 8.22129883 9.83685547 8.0625 11.125 C7.91264648 12.39923828 7.91264648 12.39923828 7.75976562 13.69921875 C7.51190616 15.80012277 7.25664815 17.90015149 7 20 C6.01 20 5.02 20 4 20 C4.04640625 19.39414062 4.0928125 18.78828125 4.140625 18.1640625 C4.43809301 11.25855509 2.95864155 6.20786398 0 0 Z " fill="#D3B14C" transform="translate(292,270)"/>
<path d="M0 0 C1.98 0 3.96 0 6 0 C6.50512244 1.60256108 7.00391627 3.20711792 7.5 4.8125 C7.7784375 5.70582031 8.056875 6.59914062 8.34375 7.51953125 C9 10 9 10 9 13 C7.171875 12.80859375 7.171875 12.80859375 5 12 C3.515625 9.78515625 3.515625 9.78515625 2.25 7.0625 C1.82203125 6.16660156 1.3940625 5.27070313 0.953125 4.34765625 C0 2 0 2 0 0 Z " fill="#C7A84F" transform="translate(256,237)"/>
<path d="M0 0 C2.45906037 0.47565766 4.91720993 0.95536052 7.375 1.4375 C8.07367188 1.57220703 8.77234375 1.70691406 9.4921875 1.84570312 C14.7734375 2.88671875 14.7734375 2.88671875 17 4 C17 5.65 17 7.3 17 9 C15.35 8.67 13.7 8.34 12 8 C12 7.34 12 6.68 12 6 C11.42765625 6.22429687 10.8553125 6.44859375 10.265625 6.6796875 C8 7 8 7 5.859375 5.8203125 C5.16328125 5.26085937 4.4671875 4.70140625 3.75 4.125 C3.04359375 3.57070312 2.3371875 3.01640625 1.609375 2.4453125 C1.07828125 1.96835938 0.5471875 1.49140625 0 1 C0 0.67 0 0.34 0 0 Z " fill="#DCB545" transform="translate(229,214)"/>
<path d="M0 0 C5.89084374 0.70412442 11.29104712 2.65200122 16.875 4.5625 C17.84953125 4.89185547 18.8240625 5.22121094 19.828125 5.56054688 C22.22016694 6.36961988 24.61069897 7.1828756 27 8 C27 8.33 27 8.66 27 9 C20.53283348 8.82899319 14.59533037 7.49257255 8.4375 5.625 C7.72271484 5.41593018 7.00792969 5.20686035 6.27148438 4.99145508 C4.24609375 4.3515625 4.24609375 4.3515625 1 3 C0.67 2.01 0.34 1.02 0 0 Z " fill="#0B0B09" transform="translate(204,186)"/>
<path d="M0 0 C0.33 0 0.66 0 1 0 C1.38289206 19.71894094 1.38289206 19.71894094 -1 27 C-1.66 27.33 -2.32 27.66 -3 28 C-2.89004549 24.0827588 -2.75943266 20.16647155 -2.625 16.25 C-2.5940625 15.13882813 -2.563125 14.02765625 -2.53125 12.8828125 C-2.49257812 11.81289062 -2.45390625 10.74296875 -2.4140625 9.640625 C-2.3826416 8.65610352 -2.3512207 7.67158203 -2.31884766 6.65722656 C-1.99897742 3.99147799 -1.35631379 2.29383595 0 0 Z " fill="#0B0B0B" transform="translate(253,166)"/>
<path d="M0 0 C1.37562854 1.28965176 2.70766393 2.62689293 4 4 C4 4.66 4 5.32 4 6 C4.99 6.33 5.98 6.66 7 7 C8.0625 9.6875 8.0625 9.6875 9 13 C9.37125 14.11375 9.7425 15.2275 10.125 16.375 C10.41375 17.24125 10.7025 18.1075 11 19 C10.34 19.33 9.68 19.66 9 20 C4.53129128 16.45585171 3.49539886 12.27371431 2 7 C1.79246094 6.29359375 1.58492187 5.5871875 1.37109375 4.859375 C0.90135817 3.24322182 0.44867333 1.62212664 0 0 Z " fill="#101010" transform="translate(225,164)"/>
<path d="M0 0 C0 3 0 3 -2 6 C-2.433125 7.3303125 -2.433125 7.3303125 -2.875 8.6875 C-4.22696045 12.66827244 -6.05575719 16.28139967 -8 20 C-8.66 20 -9.32 20 -10 20 C-10.28875 20.9075 -10.5775 21.815 -10.875 22.75 C-11.76531776 25.32202908 -12.71494413 27.61346766 -14 30 C-14.66 29.67 -15.32 29.34 -16 29 C-15.45730469 27.99839844 -14.91460937 26.99679687 -14.35546875 25.96484375 C-13.6326572 24.62247944 -12.91000971 23.28002679 -12.1875 21.9375 C-11.83107422 21.28072266 -11.47464844 20.62394531 -11.10742188 19.94726562 C-8.26579338 14.65505843 -5.71229643 9.40400044 -4 3.625 C-3.67 2.75875 -3.34 1.8925 -3 1 C-2.01 0.67 -1.02 0.34 0 0 Z " fill="#CCAC51" transform="translate(237,241)"/>
<path d="M0 0 C4.74591231 4.24084274 7.75418673 9.08453102 10.9375 14.5625 C11.45634766 15.41263672 11.97519531 16.26277344 12.50976562 17.13867188 C12.98994141 17.96044922 13.47011719 18.78222656 13.96484375 19.62890625 C14.4043335 20.37213135 14.84382324 21.11535645 15.29663086 21.88110352 C16 24 16 24 15.12719727 26.27319336 C14.56923462 27.12796265 14.56923462 27.12796265 14 28 C13.49210937 26.96101563 12.98421875 25.92203125 12.4609375 24.8515625 C8.91715773 17.65520271 5.34860452 10.59488475 1.03125 3.8203125 C0 2 0 2 0 0 Z " fill="#3E2406" transform="translate(279,251)"/>
<path d="M0 0 C1.64767247 0.28109113 3.29313145 0.57518526 4.9375 0.875 C5.85402344 1.03742188 6.77054687 1.19984375 7.71484375 1.3671875 C8.46894531 1.57601562 9.22304688 1.78484375 10 2 C10.33 2.66 10.66 3.32 11 4 C10.34 4 9.68 4 9 4 C8.67 4.66 8.34 5.32 8 6 C7.34 6 6.68 6 6 6 C5.67 6.66 5.34 7.32 5 8 C4.34 7.01 3.68 6.02 3 5 C2.62875 5.515625 2.2575 6.03125 1.875 6.5625 C0 8 0 8 -3.1875 7.6875 C-4.115625 7.460625 -5.04375 7.23375 -6 7 C-4.68 6.67 -3.36 6.34 -2 6 C-2.33 5.01 -2.66 4.02 -3 3 C-2.01 2.67 -1.02 2.34 0 2 C0 1.34 0 0.68 0 0 Z " fill="#DDBC53" transform="translate(288,224)"/>
<path d="M0 0 C2.5 1.375 2.5 1.375 5 3 C5 3.66 5 4.32 5 5 C5.78375 5.0825 6.5675 5.165 7.375 5.25 C10 6 10 6 11.125 7.875 C11.41375 8.57625 11.7025 9.2775 12 10 C13.5412312 11.70921589 13.5412312 11.70921589 15 13 C9.692787 11.9385574 4.77606682 9.48355475 0 7 C0.66 7 1.32 7 2 7 C2.22609337 4.87635519 2.22609337 4.87635519 0.5 3.375 C0.005 2.92125 -0.49 2.4675 -1 2 C-0.67 1.34 -0.34 0.68 0 0 Z " fill="#D6B855" transform="translate(266,217)"/>
<path d="M0 0 C0.80824219 0.33773437 1.61648437 0.67546875 2.44921875 1.0234375 C3.51785156 1.46945313 4.58648437 1.91546875 5.6875 2.375 C6.74324219 2.81585938 7.79898438 3.25671875 8.88671875 3.7109375 C11.58356657 4.82757462 14.28716264 5.92291801 17 7 C17 7.66 17 8.32 17 9 C9.90116066 7.85210257 3.58341381 5.88549626 -3 3 C-2.01 2.01 -1.02 1.02 0 0 Z " fill="#C2A24F" transform="translate(224,206)"/>
<path d="M0 0 C2.16965398 3.25448097 3.36143262 6.5253585 4.625 10.1875 C4.85445312 10.84169922 5.08390625 11.49589844 5.3203125 12.16992188 C5.88395144 13.77864135 6.44247984 15.38914977 7 17 C6.34 17.33 5.68 17.66 5 18 C4.34 17.34 3.68 16.68 3 16 C3.66 16 4.32 16 5 16 C5 15.34 5 14.68 5 14 C2.03 13.67 -0.94 13.34 -4 13 C-4.33 11.35 -4.66 9.7 -5 8 C-4.34 8 -3.68 8 -3 8 C-2.67 8.66 -2.34 9.32 -2 10 C0.02463255 10.65213292 0.02463255 10.65213292 2 11 C2 9.35 2 7.7 2 6 C1.34 6 0.68 6 0 6 C0 4.02 0 2.04 0 0 Z " fill="#CBA94C" transform="translate(244,212)"/>
<path d="M0 0 C-0.33 0.99 -0.66 1.98 -1 3 C-6.78634905 5.74090218 -12.69203097 6.35044272 -19 6 C-19 5.34 -19 4.68 -19 4 C-16.39688008 3.32900016 -13.79264602 2.66304662 -11.1875 2 C-10.44951172 1.80921875 -9.71152344 1.6184375 -8.95117188 1.421875 C-5.89464659 0.64737086 -3.16626522 0 0 0 Z " fill="#241604" transform="translate(279,230)"/>
<path d="M0 0 C5.06998019 0.65419099 9.41990777 2.8546409 14 5 C12.64453125 6.5 12.64453125 6.5 11 8 C6.1020153 8 3.37492986 5.21795638 0 2 C0 1.34 0 0.68 0 0 Z " fill="#080905" transform="translate(212,196)"/>
<path d="M0 0 C-0.33 0.66 -0.66 1.32 -1 2 C-3.5625 2.625 -3.5625 2.625 -6 3 C-4.865625 3.144375 -3.73125 3.28875 -2.5625 3.4375 C1 4 1 4 2 5 C3.68608966 5.07205511 5.37500659 5.08386068 7.0625 5.0625 C7.98160156 5.05347656 8.90070313 5.04445312 9.84765625 5.03515625 C10.55792969 5.02355469 11.26820313 5.01195312 12 5 C12 5.66 12 6.32 12 7 C4.37048445 7.34855655 -1.92444501 7.0017506 -9 4 C-8.67 3.01 -8.34 2.02 -8 1 C-5.29120665 -0.35439668 -2.99066732 -0.06501451 0 0 Z " fill="#D4B157" transform="translate(240,227)"/>
<path d="M0 0 C1.98 0.99 1.98 0.99 4 2 C4.33 2.99 4.66 3.98 5 5 C6.65 4.67 8.3 4.34 10 4 C10 4.66 10 5.32 10 6 C11.65 6 13.3 6 15 6 C12.09907498 7.93395001 11.10325263 8.30131941 7.8125 8.625 C6.554375 8.74875 5.29625 8.8725 4 9 C2.68 6.03 1.36 3.06 0 0 Z " fill="#D1AE50" transform="translate(258,225)"/>
<path d="M0 0 C0.33 0 0.66 0 1 0 C1.28977444 15.93759424 1.28977444 15.93759424 -2.5625 20.5625 C-3.7690625 21.7690625 -3.7690625 21.7690625 -5 23 C-5 20 -5 20 -4.06640625 18.29296875 C-2.57293455 15.08173107 -2.31838986 11.79350209 -1.9375 8.3125 C-1.12381329 1.12381329 -1.12381329 1.12381329 0 0 Z " fill="#0C0C0C" transform="translate(246,159)"/>
<path d="M0 0 C0.6875 1.625 0.6875 1.625 1 4 C-0.4375 7.25 -0.4375 7.25 -2 10 C-3.32 9.67 -4.64 9.34 -6 9 C-5.67 7.35 -5.34 5.7 -5 4 C-4.34 4 -3.68 4 -3 4 C-2.67 3.01 -2.34 2.02 -2 1 C-1.34 0.67 -0.68 0.34 0 0 Z " fill="#D6B457" transform="translate(213,301)"/>
<path d="M0 0 C2.92582625 0.33511666 3.87356559 0.8559608 5.8515625 3.109375 C6.72941406 4.41648438 6.72941406 4.41648438 7.625 5.75 C8.21539062 6.61109375 8.80578125 7.4721875 9.4140625 8.359375 C10.91301017 10.85515979 12.00773242 13.26880804 13 16 C11.68 16.33 10.36 16.66 9 17 C9 14.69 9 12.38 9 10 C8.34 10 7.68 10 7 10 C5.97388051 8.34928604 4.97691857 6.68029994 4 5 C3.01904252 3.98131338 2.02297922 2.97648017 1 2 C0.67 1.34 0.34 0.68 0 0 Z " fill="#D3AF4D" transform="translate(271,245)"/>
<path d="M0 0 C0.66 0 1.32 0 2 0 C0.58192622 4.47238653 -1.11304374 8.71146306 -3 13 C-3.33 13 -3.66 13 -4 13 C-4.33 9.7 -4.66 6.4 -5 3 C-3.35 2.67 -1.7 2.34 0 2 C0 1.34 0 0.68 0 0 Z " fill="#D8B347" transform="translate(217,270)"/>
<path d="M0 0 C1.95979427 0.28168297 3.91782378 0.57566717 5.875 0.875 C7.51082031 1.11863281 7.51082031 1.11863281 9.1796875 1.3671875 C12 2 12 2 14 4 C13.030625 4.12375 12.06125 4.2475 11.0625 4.375 C9.5465625 4.684375 9.5465625 4.684375 8 5 C7.67 5.66 7.34 6.32 7 7 C5.82780457 6.21654285 4.66236332 5.42297164 3.5 4.625 C2.8503125 4.18414062 2.200625 3.74328125 1.53125 3.2890625 C1.0259375 2.86367187 0.520625 2.43828125 0 2 C0 1.34 0 0.68 0 0 Z " fill="#CFAD52" transform="translate(224,203)"/>
<path d="M0 0 C0.66 0.66 1.32 1.32 2 2 C-0.26877104 2.24875561 -2.54019735 2.47339246 -4.8125 2.6875 C-6.07707031 2.81511719 -7.34164063 2.94273437 -8.64453125 3.07421875 C-12 3 -12 3 -13.94921875 1.51953125 C-14.29597656 1.01808594 -14.64273437 0.51664062 -15 0 C-13.25093341 -0.19601608 -11.50068154 -0.38147403 -9.75 -0.5625 C-8.77546875 -0.66691406 -7.8009375 -0.77132813 -6.796875 -0.87890625 C-4.19887862 -0.99138933 -2.42306283 -0.89524667 0 0 Z " fill="#2F1E06" transform="translate(284,293)"/>
<path d="M0 0 C0 0.99 0 1.98 0 3 C-0.99 3 -1.98 3 -3 3 C-2.67 4.98 -2.34 6.96 -2 9 C-2.99 9 -3.98 9 -5 9 C-5.33 7.35 -5.66 5.7 -6 4 C-6.66 4 -7.32 4 -8 4 C-8 3.01 -8 2.02 -8 1 C-5.23735711 0.40267181 -2.83967231 0 0 0 Z " fill="#DDB43C" transform="translate(263,213)"/>
<path d="M0 0 C1.32 0.33 2.64 0.66 4 1 C2.69181533 3.16938141 1.37874076 5.3355152 0.0625 7.5 C-0.31068359 8.12003906 -0.68386719 8.74007813 -1.06835938 9.37890625 C-2.0181984 10.93629997 -3.00613311 12.4703275 -4 14 C-4.33 14 -4.66 14 -5 14 C-5 12.02 -5 10.04 -5 8 C-4.34 8 -3.68 8 -3 8 C-3 7.34 -3 6.68 -3 6 C-2.34 6 -1.68 6 -1 6 C-0.67 4.02 -0.34 2.04 0 0 Z " fill="#CEAE4C" transform="translate(226,252)"/>
<path d="M0 0 C0.165 0.639375 0.33 1.27875 0.5 1.9375 C1.95927566 4.45198198 1.95927566 4.45198198 5.8125 4.625 C6.52019531 4.67785156 7.22789062 4.73070312 7.95703125 4.78515625 C10.53500345 5.05626231 12.66373944 5.90487786 15 7 C13.35546875 8.13671875 13.35546875 8.13671875 11 9 C8.23828125 8.20703125 8.23828125 8.20703125 5.3125 6.8125 C4.33925781 6.36519531 3.36601562 5.91789063 2.36328125 5.45703125 C0 4 0 4 -1 1 C-0.67 0.67 -0.34 0.34 0 0 Z " fill="#0F0F0F" transform="translate(160,139)"/>
<path d="M0 0 C5.36513131 0.847126 10.6787385 1.91681831 16 3 C15 5 15 5 13.296875 5.77734375 C10.06503958 6.09063392 8.14460424 4.97534254 5.25 3.5625 C4.26515625 3.08941406 3.2803125 2.61632812 2.265625 2.12890625 C1.51796875 1.75636719 0.7703125 1.38382812 0 1 C0 0.67 0 0.34 0 0 Z " fill="#D2B759" transform="translate(213,308)"/>
<path d="M0 0 C2.35546875 0.18359375 2.35546875 0.18359375 5 1 C6.36328125 3.28515625 6.36328125 3.28515625 7.3125 6.0625 C7.63863281 6.98160156 7.96476562 7.90070313 8.30078125 8.84765625 C8.53152344 9.55792969 8.76226562 10.26820313 9 11 C8.01 11.495 8.01 11.495 7 12 C7 11.34 7 10.68 7 10 C6.34 9.67 5.68 9.34 5 9 C4.375 6.4375 4.375 6.4375 4 4 C3.01 3.67 2.02 3.34 1 3 C1.33 2.34 1.66 1.68 2 1 C1.34 0.67 0.68 0.34 0 0 Z " fill="#CFAC4A" transform="translate(250,237)"/>
<path d="M0 0 C0.99 0 1.98 0 3 0 C4.06652192 2.30368736 5.06421005 4.64018187 6 7 C5.67 7.66 5.34 8.32 5 9 C4.01 9 3.02 9 2 9 C1.34 6.03 0.68 3.06 0 0 Z " fill="#D4B046" transform="translate(253,224)"/>
<path d="M0 0 C2.64 0 5.28 0 8 0 C6.515 1.485 6.515 1.485 5 3 C5.7734375 3.8971875 5.7734375 3.8971875 6.5625 4.8125 C7.036875 5.534375 7.51125 6.25625 8 7 C7.67 7.99 7.34 8.98 7 10 C5.83043409 8.52312468 4.66441854 7.04343707 3.5 5.5625 C2.8503125 4.73878906 2.200625 3.91507813 1.53125 3.06640625 C0 1 0 1 0 0 Z " fill="#151413" transform="translate(164,152)"/>
<path d="M0 0 C3.63 0.66 7.26 1.32 11 2 C10.34 3.65 9.68 5.3 9 7 C7.4972763 6.02501855 5.99788037 5.04490611 4.5 4.0625 C3.6646875 3.51722656 2.829375 2.97195312 1.96875 2.41015625 C1.3190625 1.94480469 0.669375 1.47945312 0 1 C0 0.67 0 0.34 0 0 Z " fill="#CCAC51" transform="translate(229,214)"/>
<path d="M0 0 C2.86867231 1.38264837 5.56024032 2.92148553 8.25 4.625 C8.95640625 5.07101563 9.6628125 5.51703125 10.390625 5.9765625 C10.92171875 6.31429687 11.4528125 6.65203125 12 7 C9 8 9 8 6.8125 7.0625 C6.214375 6.711875 5.61625 6.36125 5 6 C5 5.34 5 4.68 5 4 C3.02 4.33 1.04 4.66 -1 5 C-0.67 3.35 -0.34 1.7 0 0 Z " fill="#CCAD4F" transform="translate(223,213)"/>
<path d="M0 0 C1.21236328 0.02707031 1.21236328 0.02707031 2.44921875 0.0546875 C3.37154297 0.08949219 3.37154297 0.08949219 4.3125 0.125 C4.3125 1.115 4.3125 2.105 4.3125 3.125 C0.3525 2.795 -3.6075 2.465 -7.6875 2.125 C-4.48369983 -0.01086678 -3.66810033 -0.10632175 0 0 Z " fill="#312108" transform="translate(227.6875,292.875)"/>
<path d="M0 0 C-0.66 0 -1.32 0 -2 0 C-2 0.66 -2 1.32 -2 2 C-1.34 2.66 -0.68 3.32 0 4 C-3.3 4 -6.6 4 -10 4 C-9.67 3.34 -9.34 2.68 -9 2 C-8.01 2 -7.02 2 -6 2 C-6 1.34 -6 0.68 -6 0 C-3.50907189 -1.24546405 -2.58919267 -0.7767578 0 0 Z " fill="#BF9A32" transform="translate(270,222)"/>
<path d="M0 0 C2.0625 0.4375 2.0625 0.4375 4 1 C3.67 2.65 3.34 4.3 3 6 C1.68 6 0.36 6 -1 6 C-1.042721 4.33388095 -1.04063832 2.66617115 -1 1 C-0.67 0.67 -0.34 0.34 0 0 Z " fill="#D5B963" transform="translate(255,347)"/>
<path d="M0 0 C0.33 0 0.66 0 1 0 C1.33 1.65 1.66 3.3 2 5 C5.96 5.99 5.96 5.99 10 7 C9.67 7.66 9.34 8.32 9 9 C3.375 9.25 3.375 9.25 0 7 C-0.1875 3.375 -0.1875 3.375 0 0 Z " fill="#211002" transform="translate(214,285)"/>
<path d="M0 0 C-0.66 0.66 -1.32 1.32 -2 2 C-2.99 2 -3.98 2 -5 2 C-5 2.66 -5 3.32 -5 4 C-3.68 4.66 -2.36 5.32 -1 6 C-2.875 6.625 -2.875 6.625 -5 7 C-5.66 6.34 -6.32 5.68 -7 5 C-7 3.68 -7 2.36 -7 1 C-3.375 -1.125 -3.375 -1.125 0 0 Z " fill="#C3AB5A" transform="translate(224,206)"/>
<path d="M0 0 C1.98 0.495 1.98 0.495 4 1 C3.67 2.65 3.34 4.3 3 6 C1.68 6 0.36 6 -1 6 C-0.67 4.02 -0.34 2.04 0 0 Z " fill="#D7BB64" transform="translate(237,335)"/>
<path d="M0 0 C0.66 0 1.32 0 2 0 C1.34 2.31 0.68 4.62 0 7 C-3 7 -3 7 -5.1875 5 C-5.785625 4.34 -6.38375 3.68 -7 3 C-6.01 3 -5.02 3 -4 3 C-4 3.66 -4 4.32 -4 5 C-3.34 5 -2.68 5 -2 5 C-2 4.01 -2 3.02 -2 2 C-1.34 2 -0.68 2 0 2 C0 1.34 0 0.68 0 0 Z " fill="#D6BB54" transform="translate(268,318)"/>
<path d="M0 0 C0.33 0 0.66 0 1 0 C1.33 3.63 1.66 7.26 2 11 C1.67 10.01 1.34 9.02 1 8 C-0.32 8 -1.64 8 -3 8 C-3 6.68 -3 5.36 -3 4 C-2.01 4 -1.02 4 0 4 C0 2.68 0 1.36 0 0 Z " fill="#DBBC5A" transform="translate(191,260)"/>
<path d="M0 0 C0.66 0 1.32 0 2 0 C3.21875 1.71484375 3.21875 1.71484375 4.5 3.9375 C6.18454879 7.05432026 6.18454879 7.05432026 9 9 C9 9.66 9 10.32 9 11 C7.171875 10.81640625 7.171875 10.81640625 5 10 C3.515625 7.71484375 3.515625 7.71484375 2.25 4.9375 C1.60804688 3.55884766 1.60804688 3.55884766 0.953125 2.15234375 C0.63859375 1.44207031 0.3240625 0.73179687 0 0 Z " fill="#CFAC53" transform="translate(285,258)"/>
<path d="M0 0 C1.32 0.33 2.64 0.66 4 1 C5.25 4.0625 5.25 4.0625 6 7 C5.01 7.66 4.02 8.32 3 9 C2.01 6.03 1.02 3.06 0 0 Z " fill="#C5A854" transform="translate(242,201)"/>
<path d="M0 0 C-0.33 0.66 -0.66 1.32 -1 2 C-3.5625 2.625 -3.5625 2.625 -6 3 C-5.34 3.33 -4.68 3.66 -4 4 C-4.33 4.66 -4.66 5.32 -5 6 C-6.32 5.34 -7.64 4.68 -9 4 C-8.67 3.01 -8.34 2.02 -8 1 C-5.29120665 -0.35439668 -2.99066732 -0.06501451 0 0 Z " fill="#CAAD52" transform="translate(240,227)"/>
<path d="M0 0 C1.98 0.495 1.98 0.495 4 1 C4 2.32 4 3.64 4 5 C3.01 5 2.02 5 1 5 C0.67 5.66 0.34 6.32 0 7 C-1.125 2.25 -1.125 2.25 0 0 Z " fill="#D0AC55" transform="translate(252,206)"/>
<path d="M0 0 C3.465 1.485 3.465 1.485 7 3 C6.01 3.495 6.01 3.495 5 4 C4.34 3.67 3.68 3.34 3 3 C3 3.66 3 4.32 3 5 C1.02 4.34 -0.96 3.68 -3 3 C-2.01 2.01 -1.02 1.02 0 0 Z " fill="#A78E3A" transform="translate(224,206)"/>
<path d="M0 0 C0.1546875 1.423125 0.1546875 1.423125 0.3125 2.875 C0.68539295 6.29107501 0.68539295 6.29107501 4 8 C2.35 8 0.7 8 -1 8 C-2.4606285 5.35261084 -3 4.10551666 -3 1 C-1 0 -1 0 0 0 Z " fill="#D3AC4C" transform="translate(258,216)"/>
<path d="M0 0 C5.75 1.875 5.75 1.875 8 3 C8 3.99 8 4.98 8 6 C5.0280615 4.87548273 2.66559313 3.77706209 0 2 C0 1.34 0 0.68 0 0 Z " fill="#1B0C01" transform="translate(219,208)"/>
<path d="M0 0 C0.66 0.33 1.32 0.66 2 1 C1.67 1.66 1.34 2.32 1 3 C1.66 3 2.32 3 3 3 C2.34 4.65 1.68 6.3 1 8 C0.01 6.68 -0.98 5.36 -2 4 C-1.34 2.68 -0.68 1.36 0 0 Z " fill="#5D4E2E" transform="translate(248,201)"/>
<path d="M0 0 C-0.33 1.65 -0.66 3.3 -1 5 C-2.32 5 -3.64 5 -5 5 C-5 3.68 -5 2.36 -5 1 C-2 0 -2 0 0 0 Z " fill="#D6BD57" transform="translate(283,319)"/>
<path d="M0 0 C3.875 1.75 3.875 1.75 5 4 C3.75 5.5625 3.75 5.5625 2 7 C-0.1875 6.6875 -0.1875 6.6875 -2 6 C-1.01 6 -0.02 6 1 6 C0.67 4.02 0.34 2.04 0 0 Z " fill="#DBB556" transform="translate(278,305)"/>
<path d="M0 0 C1.0625 1.8125 1.0625 1.8125 2 4 C1.67 4.99 1.34 5.98 1 7 C0.34 7 -0.32 7 -1 7 C-1 8.98 -1 10.96 -1 13 C-1.33 13 -1.66 13 -2 13 C-2.19294408 8.17639811 -1.75747614 4.50353262 0 0 Z " fill="#3B2B07" transform="translate(215,278)"/>
<path d="M0 0 C0 3.99904969 -1.72586967 5.80200422 -4 9 C-5 7 -5 7 -4.25 3.9375 C-3.8375 2.968125 -3.425 1.99875 -3 1 C-2.01 0.67 -1.02 0.34 0 0 Z " fill="#B08B29" transform="translate(237,241)"/>
<path d="M0 0 C1.9375 0.375 1.9375 0.375 4 1 C4.33 1.66 4.66 2.32 5 3 C4.01 3.495 4.01 3.495 3 4 C3 5.32 3 6.64 3 8 C2.34 8 1.68 8 1 8 C0.67 5.36 0.34 2.72 0 0 Z " fill="#D7BA6F" transform="translate(198,212)"/>
<path d="M0 0 C0.66 0.33 1.32 0.66 2 1 C2 2.65 2 4.3 2 6 C0.0625 5.6875 0.0625 5.6875 -2 5 C-2.33 4.01 -2.66 3.02 -3 2 C-2.01 2 -1.02 2 0 2 C0 1.34 0 0.68 0 0 Z " fill="#D4B85D" transform="translate(205,297)"/>
<path d="M0 0 C1.98 0 3.96 0 6 0 C6.33 0.99 6.66 1.98 7 3 C5.68 3.33 4.36 3.66 3 4 C3 3.34 3 2.68 3 2 C2.01 2 1.02 2 0 2 C0 1.34 0 0.68 0 0 Z " fill="#D6B65F" transform="translate(318,293)"/>
<path d="M0 0 C0.99 0 1.98 0 3 0 C3.33 1.98 3.66 3.96 4 6 C2.68 5.67 1.36 5.34 0 5 C0 3.35 0 1.7 0 0 Z " fill="#DEB445" transform="translate(258,238)"/>
<path d="M0 0 C4.95 0.99 4.95 0.99 10 2 C10.33 3.32 10.66 4.64 11 6 C10.01 6.495 10.01 6.495 9 7 C8.34 6.34 7.68 5.68 7 5 C7.66 5 8.32 5 9 5 C9 4.34 9 3.68 9 3 C6.03 2.67 3.06 2.34 0 2 C0 1.34 0 0.68 0 0 Z " fill="#AC8F3E" transform="translate(240,223)"/>
<path d="M0 0 C0.66 0.33 1.32 0.66 2 1 C1.42655063 3.86724686 1.1385485 4.8614515 -1 7 C-4.125 7.125 -4.125 7.125 -7 7 C-7 6.67 -7 6.34 -7 6 C-6.21625 5.938125 -5.4325 5.87625 -4.625 5.8125 C-3.75875 5.544375 -2.8925 5.27625 -2 5 C-0.62533375 2.52363988 -0.62533375 2.52363988 0 0 Z " fill="#D1B96B" transform="translate(333,251)"/>
<path d="M0 0 C0.99 0.33 1.98 0.66 3 1 C2.34 1 1.68 1 1 1 C1 2.32 1 3.64 1 5 C1.66 5.33 2.32 5.66 3 6 C1.35 6.33 -0.3 6.66 -2 7 C-1.34 4.69 -0.68 2.38 0 0 Z " fill="#D0AB4C" transform="translate(228,227)"/>
<path d="M0 0 C0.99 0 1.98 0 3 0 C2.67 2.31 2.34 4.62 2 7 C1.34 7 0.68 7 0 7 C-1.04449911 3.86650268 -0.93423645 3.01031744 0 0 Z " fill="#DCB540" transform="translate(264,206)"/>
<path d="M0 0 C0.66 0.33 1.32 0.66 2 1 C1.67 2.32 1.34 3.64 1 5 C-0.65 4.67 -2.3 4.34 -4 4 C-4 3.34 -4 2.68 -4 2 C-2.125 0.9375 -2.125 0.9375 0 0 Z " fill="#BCA155" transform="translate(229,197)"/>
<path d="M0 0 C0.94875 0.350625 1.8975 0.70125 2.875 1.0625 C0.38407189 2.30796405 -0.53580733 1.8392578 -3.125 1.0625 C-3.125 1.7225 -3.125 2.3825 -3.125 3.0625 C-4.115 3.0625 -5.105 3.0625 -6.125 3.0625 C-5.795 2.0725 -5.465 1.0825 -5.125 0.0625 C-3.125 -0.9375 -3.125 -0.9375 0 0 Z " fill="#D5B963" transform="translate(316.125,279.9375)"/>
<path d="M0 0 C0.66 0 1.32 0 2 0 C0.25 5.75 0.25 5.75 -2 8 C-2.33 6.35 -2.66 4.7 -3 3 C-2.01 2.67 -1.02 2.34 0 2 C0 1.34 0 0.68 0 0 Z " fill="#CFAC51" transform="translate(217,270)"/>
<path d="M0 0 C2.875 0.3125 2.875 0.3125 6 1 C6.66 1.99 7.32 2.98 8 4 C6.68 4.33 5.36 4.66 4 5 C3.896875 4.360625 3.79375 3.72125 3.6875 3.0625 C3.460625 2.381875 3.23375 1.70125 3 1 C2.01 0.67 1.02 0.34 0 0 Z " fill="#BC983A" transform="translate(270,226)"/>
<path d="M0 0 C2.475 0.495 2.475 0.495 5 1 C4.01 1.99 3.02 2.98 2 4 C1.34 2.68 0.68 1.36 0 0 Z " fill="#D5B55A" transform="translate(251,330)"/>
<path d="M0 0 C1.32 0.33 2.64 0.66 4 1 C3.67 1.99 3.34 2.98 3 4 C2.01 3.67 1.02 3.34 0 3 C0 2.01 0 1.02 0 0 Z " fill="#C8BC73" transform="translate(289,323)"/>
<path d="M0 0 C0.66 0 1.32 0 2 0 C2 1.32 2 2.64 2 4 C1.01 4 0.02 4 -1 4 C-0.67 2.68 -0.34 1.36 0 0 Z " fill="#D4BE71" transform="translate(337,288)"/>
<path d="M0 0 C0.99 0 1.98 0 3 0 C3 0.99 3 1.98 3 3 C2.01 3 1.02 3 0 3 C0 2.01 0 1.02 0 0 Z " fill="#D1BF7D" transform="translate(285,334)"/>
<path d="M0 0 C0.66 0.33 1.32 0.66 2 1 C1.67 1.99 1.34 2.98 1 4 C0.34 4 -0.32 4 -1 4 C-0.67 2.68 -0.34 1.36 0 0 Z " fill="#D5BB71" transform="translate(242,324)"/>
<path d="M0 0 C0.99 0 1.98 0 3 0 C2.67 0.99 2.34 1.98 2 3 C1.34 3 0.68 3 0 3 C0 2.01 0 1.02 0 0 Z " fill="#C6B76C" transform="translate(184,320)"/>
<path d="M0 0 C0.66 0.33 1.32 0.66 2 1 C1.67 1.99 1.34 2.98 1 4 C0.34 3.67 -0.32 3.34 -1 3 C-0.67 2.01 -0.34 1.02 0 0 Z " fill="#B4AB78" transform="translate(213,203)"/>
<path d="M0 0 C0.66 0 1.32 0 2 0 C2 0.99 2 1.98 2 3 C1.01 2.67 0.02 2.34 -1 2 C-0.67 1.34 -0.34 0.68 0 0 Z " fill="#CCBD80" transform="translate(257,342)"/>
<path d="M0 0 C0.66 0.33 1.32 0.66 2 1 C2 1.66 2 2.32 2 3 C1.01 3 0.02 3 -1 3 C-0.67 2.01 -0.34 1.02 0 0 Z " fill="#D5C076" transform="translate(278,332)"/>
<path d="M0 0 C0.99 0 1.98 0 3 0 C2.67 0.99 2.34 1.98 2 3 C1.34 2.67 0.68 2.34 0 2 C0 1.34 0 0.68 0 0 Z " fill="#D8CDA1" transform="translate(245,321)"/>
<path d="M0 0 C0.66 0 1.32 0 2 0 C2 0.99 2 1.98 2 3 C1.34 3 0.68 3 0 3 C0 2.01 0 1.02 0 0 Z " fill="#D7D6C5" transform="translate(309,338)"/>
<path d="M0 0 C0.99 0.33 1.98 0.66 3 1 C2.01 1.33 1.02 1.66 0 2 C0 1.34 0 0.68 0 0 Z " fill="#C7C475" transform="translate(203,326)"/>
<path d="M0 0 C0.33 0.99 0.66 1.98 1 3 C0.34 3 -0.32 3 -1 3 C-0.67 2.01 -0.34 1.02 0 0 Z " fill="#CAC687" transform="translate(203,319)"/>
<path d="M0 0 C0.66 0 1.32 0 2 0 C2 0.66 2 1.32 2 2 C1.34 2 0.68 2 0 2 C0 1.34 0 0.68 0 0 Z " fill="#CAC08B" transform="translate(281,316)"/>
<path d="M0 0 C0.99 0.33 1.98 0.66 3 1 C2.01 1 1.02 1 0 1 C0 0.67 0 0.34 0 0 Z " fill="#C0C099" transform="translate(325,281)"/>
<path d="M0 0 C0.66 0 1.32 0 2 0 C2 0.66 2 1.32 2 2 C1.34 2 0.68 2 0 2 C0 1.34 0 0.68 0 0 Z " fill="#C3BF75" transform="translate(180,232)"/>
<path d="M0 0 C0.99 0.33 1.98 0.66 3 1 C2.01 1 1.02 1 0 1 C0 0.67 0 0.34 0 0 Z " fill="#060606" transform="translate(148,46)"/>
<path d="" fill="#C9BA96" transform="translate(0,0)"/>
<path d="" fill="#FFFFFF" transform="translate(0,0)"/>
<path d="" fill="#FFFFFF" transform="translate(0,0)"/>
<path d="" fill="#FFFFFF" transform="translate(0,0)"/>
<path d="" fill="#FFFFFF" transform="translate(0,0)"/>
<path d="" fill="#FFFFFF" transform="translate(0,0)"/>
<path d="" fill="#FFFFFF" transform="translate(0,0)"/>
<path d="" fill="#FFFFFF" transform="translate(0,0)"/>
<path d="" fill="#FFFFFF" transform="translate(0,0)"/>
<path d="" fill="#FFFFFF" transform="translate(0,0)"/>
<path d="" fill="#FFFFFF" transform="translate(0,0)"/>
<path d="" fill="#FFFFFF" transform="translate(0,0)"/>
<path d="" fill="#FFFFFF" transform="translate(0,0)"/>
<path d="" fill="#FFFFFF" transform="translate(0,0)"/>
<path d="" fill="#FFFFFF" transform="translate(0,0)"/>
<path d="" fill="#FFFFFF" transform="translate(0,0)"/>
<path d="" fill="#FFFFFF" transform="translate(0,0)"/>
<path d="" fill="#FFFFFF" transform="translate(0,0)"/>
<path d="" fill="#FFFFFF" transform="translate(0,0)"/>
<path d="" fill="#FFFFFF" transform="translate(0,0)"/>
<path d="" fill="#FFFFFF" transform="translate(0,0)"/>
<path d="" fill="#FFFFFF" transform="translate(0,0)"/>
<path d="" fill="#FFFFFF" transform="translate(0,0)"/>
<path d="" fill="#FFFFFF" transform="translate(0,0)"/>
<path d="" fill="#FFFFFF" transform="translate(0,0)"/>
<path d="" fill="#FFFFFF" transform="translate(0,0)"/>
<path d="" fill="#FFFFFF" transform="translate(0,0)"/>
<path d="" fill="#FFFFFF" transform="translate(0,0)"/>
<path d="" fill="#FFFFFF" transform="translate(0,0)"/>
<path d="" fill="#FFFFFE" transform="translate(0,0)"/>
<path d="" fill="#FFFFFF" transform="translate(0,0)"/>
<path d="" fill="#FFFFFF" transform="translate(0,0)"/>
<path d="" fill="#FFFFFF" transform="translate(0,0)"/>
<path d="" fill="#FFFFFF" transform="translate(0,0)"/>
<path d="" fill="#FFFFFF" transform="translate(0,0)"/>
<path d="" fill="#FFFFFF" transform="translate(0,0)"/>
<path d="" fill="#FFFFFF" transform="translate(0,0)"/>
<path d="" fill="#FFFFFF" transform="translate(0,0)"/>
<path d="" fill="#FFFFFF" transform="translate(0,0)"/>
<path d="" fill="#FFFFFF" transform="translate(0,0)"/>
<path d="" fill="#FFFFFF" transform="translate(0,0)"/>
<path d="" fill="#FFFFFF" transform="translate(0,0)"/>
<path d="" fill="#FFFFFF" transform="translate(0,0)"/>
<path d="" fill="#FFFFFF" transform="translate(0,0)"/>
<path d="" fill="#FFFFFF" transform="translate(0,0)"/>
<path d="" fill="#FFFFFF" transform="translate(0,0)"/>
<path d="" fill="#FFFFFF" transform="translate(0,0)"/>
<path d="" fill="#FFFFFF" transform="translate(0,0)"/>
<path d="" fill="#FFFFFF" transform="translate(0,0)"/>
<path d="" fill="#FFFFFF" transform="translate(0,0)"/>
<path d="" fill="#FFFFFF" transform="translate(0,0)"/>
<path d="" fill="#FFFFFF" transform="translate(0,0)"/>
<path d="" fill="#FFFFFF" transform="translate(0,0)"/>
<path d="" fill="#FFFFFF" transform="translate(0,0)"/>
<path d="" fill="#FFFFFF" transform="translate(0,0)"/>
<path d="" fill="#000000" transform="translate(0,0)"/>
<path d="" fill="#FFFFFF" transform="translate(0,0)"/>
<path d="" fill="#FFFFFF" transform="translate(0,0)"/>
<path d="" fill="#FFFFFF" transform="translate(0,0)"/>
<path d="" fill="#FFFFFF" transform="translate(0,0)"/>
<path d="" fill="#FFFFFF" transform="translate(0,0)"/>
<path d="" fill="#FFFFFF" transform="translate(0,0)"/>
<path d="" fill="#FFFFFF" transform="translate(0,0)"/>
<path d="" fill="#FFFFFF" transform="translate(0,0)"/>
<path d="" fill="#FFFFFF" transform="translate(0,0)"/>
<path d="" fill="#FFFFFF" transform="translate(0,0)"/>
<path d="" fill="#FFFFFF" transform="translate(0,0)"/>
<path d="" fill="#FFFFFF" transform="translate(0,0)"/>
<path d="" fill="#FFFFFF" transform="translate(0,0)"/>
<path d="" fill="#FFFFFF" transform="translate(0,0)"/>
<path d="" fill="#FFFFFF" transform="translate(0,0)"/>
</svg>
